<svg width="326" height="361" viewBox="0 0 326 361" fill="none" xmlns="http://www.w3.org/2000/svg">
<path d="M5.40909 131V119.364H6.75V123.659H6.86364C6.96212 123.508 7.09848 123.314 7.27273 123.08C7.45076 122.841 7.70455 122.629 8.03409 122.443C8.36742 122.254 8.81818 122.159 9.38636 122.159C10.1212 122.159 10.7689 122.343 11.3295 122.71C11.8902 123.078 12.3277 123.598 12.642 124.273C12.9564 124.947 13.1136 125.742 13.1136 126.659C13.1136 127.583 12.9564 128.384 12.642 129.062C12.3277 129.737 11.892 130.259 11.3352 130.631C10.7784 130.998 10.1364 131.182 9.40909 131.182C8.84848 131.182 8.39962 131.089 8.0625 130.903C7.72538 130.714 7.46591 130.5 7.28409 130.261C7.10227 130.019 6.96212 129.818 6.86364 129.659H6.70455V131H5.40909ZM6.72727 126.636C6.72727 127.295 6.82386 127.877 7.01705 128.381C7.21023 128.881 7.49242 129.273 7.86364 129.557C8.23485 129.837 8.68939 129.977 9.22727 129.977C9.78788 129.977 10.2557 129.83 10.6307 129.534C11.0095 129.235 11.2936 128.833 11.483 128.33C11.6761 127.822 11.7727 127.258 11.7727 126.636C11.7727 126.023 11.678 125.47 11.4886 124.977C11.303 124.481 11.0208 124.089 10.642 123.801C10.267 123.509 9.79545 123.364 9.22727 123.364C8.68182 123.364 8.22348 123.502 7.85227 123.778C7.48106 124.051 7.20076 124.434 7.01136 124.926C6.82197 125.415 6.72727 125.985 6.72727 126.636ZM20.6648 127.432V122.273H22.0057V131H20.6648V129.523H20.5739C20.3693 129.966 20.0511 130.343 19.6193 130.653C19.1875 130.96 18.642 131.114 17.983 131.114C17.4375 131.114 16.9527 130.994 16.5284 130.756C16.1042 130.513 15.7708 130.15 15.5284 129.665C15.286 129.176 15.1648 128.561 15.1648 127.818V122.273H16.5057V127.727C16.5057 128.364 16.6837 128.871 17.0398 129.25C17.3996 129.629 17.858 129.818 18.4148 129.818C18.7481 129.818 19.0871 129.733 19.4318 129.562C19.7803 129.392 20.072 129.131 20.3068 128.778C20.5455 128.426 20.6648 127.977 20.6648 127.432ZM25.3253 134.273C25.098 134.273 24.8954 134.254 24.7173 134.216C24.5393 134.182 24.4162 134.148 24.348 134.114L24.6889 132.932C25.0147 133.015 25.3026 133.045 25.5526 133.023C25.8026 133 26.0241 132.888 26.2173 132.688C26.4143 132.491 26.5942 132.17 26.7571 131.727L27.0071 131.045L23.7798 122.273H25.2344L27.6435 129.227H27.7344L30.1435 122.273H31.598L27.8935 132.273C27.7268 132.723 27.5204 133.097 27.2741 133.392C27.0279 133.691 26.742 133.913 26.4162 134.057C26.0942 134.201 25.7306 134.273 25.3253 134.273ZM41.6634 122.273V123.409H37.1406V122.273H41.6634ZM38.4588 120.182H39.7997V128.5C39.7997 128.879 39.8546 129.163 39.9645 129.352C40.0781 129.538 40.2221 129.663 40.3963 129.727C40.5743 129.788 40.7618 129.818 40.9588 129.818C41.1065 129.818 41.2277 129.811 41.3224 129.795C41.4171 129.777 41.4929 129.761 41.5497 129.75L41.8224 130.955C41.7315 130.989 41.6046 131.023 41.4418 131.057C41.2789 131.095 41.0724 131.114 40.8224 131.114C40.4437 131.114 40.0724 131.032 39.7088 130.869C39.349 130.706 39.0497 130.458 38.8111 130.125C38.5762 129.792 38.4588 129.371 38.4588 128.864V120.182ZM45.2088 125.75V131H43.8679V119.364H45.2088V123.636H45.3224C45.527 123.186 45.8338 122.828 46.2429 122.562C46.6558 122.294 47.205 122.159 47.8906 122.159C48.4853 122.159 49.0062 122.278 49.4531 122.517C49.9001 122.752 50.2467 123.114 50.4929 123.602C50.7429 124.087 50.8679 124.705 50.8679 125.455V131H49.527V125.545C49.527 124.852 49.3471 124.316 48.9872 123.938C48.6312 123.555 48.1368 123.364 47.5043 123.364C47.0649 123.364 46.6709 123.456 46.3224 123.642C45.9777 123.828 45.705 124.098 45.5043 124.455C45.3073 124.811 45.2088 125.242 45.2088 125.75ZM56.9801 131.182C56.1392 131.182 55.4138 130.996 54.804 130.625C54.1979 130.25 53.7301 129.727 53.4006 129.057C53.0748 128.383 52.9119 127.598 52.9119 126.705C52.9119 125.811 53.0748 125.023 53.4006 124.341C53.7301 123.655 54.1884 123.121 54.7756 122.739C55.3665 122.352 56.0559 122.159 56.8438 122.159C57.2983 122.159 57.7472 122.235 58.1903 122.386C58.6335 122.538 59.0369 122.784 59.4006 123.125C59.7642 123.462 60.054 123.909 60.2699 124.466C60.4858 125.023 60.5938 125.708 60.5938 126.523V127.091H53.8665V125.932H59.2301C59.2301 125.439 59.1316 125 58.9347 124.614C58.7415 124.227 58.465 123.922 58.1051 123.699C57.7491 123.475 57.3286 123.364 56.8438 123.364C56.3097 123.364 55.8475 123.496 55.4574 123.761C55.071 124.023 54.7737 124.364 54.5653 124.784C54.357 125.205 54.2528 125.655 54.2528 126.136V126.909C54.2528 127.568 54.3665 128.127 54.5938 128.585C54.8248 129.04 55.1449 129.386 55.554 129.625C55.9631 129.86 56.4384 129.977 56.9801 129.977C57.3324 129.977 57.6506 129.928 57.9347 129.83C58.2225 129.727 58.4706 129.576 58.679 129.375C58.8873 129.17 59.0483 128.917 59.1619 128.614L60.4574 128.977C60.321 129.417 60.0919 129.803 59.7699 130.136C59.4479 130.466 59.0502 130.723 58.5767 130.909C58.1032 131.091 57.571 131.182 56.9801 131.182ZM68.4744 119.364V131H67.1335V119.364H68.4744ZM73.4986 131.205C72.9455 131.205 72.4437 131.1 71.9929 130.892C71.5421 130.68 71.1842 130.375 70.919 129.977C70.6539 129.576 70.5213 129.091 70.5213 128.523C70.5213 128.023 70.6198 127.617 70.8168 127.307C71.0137 126.992 71.277 126.746 71.6065 126.568C71.9361 126.39 72.2997 126.258 72.6974 126.17C73.099 126.08 73.5024 126.008 73.9077 125.955C74.438 125.886 74.8679 125.835 75.1974 125.801C75.5308 125.763 75.7732 125.701 75.9247 125.614C76.08 125.527 76.1577 125.375 76.1577 125.159V125.114C76.1577 124.553 76.0043 124.117 75.6974 123.807C75.3944 123.496 74.9342 123.341 74.3168 123.341C73.6766 123.341 73.1747 123.481 72.8111 123.761C72.4474 124.042 72.1918 124.341 72.044 124.659L70.7713 124.205C70.9986 123.674 71.3016 123.261 71.6804 122.966C72.063 122.667 72.4796 122.458 72.9304 122.341C73.3849 122.22 73.8319 122.159 74.2713 122.159C74.5516 122.159 74.8736 122.193 75.2372 122.261C75.6046 122.326 75.9588 122.46 76.2997 122.665C76.6444 122.869 76.9304 123.178 77.1577 123.591C77.3849 124.004 77.4986 124.557 77.4986 125.25V131H76.1577V129.818H76.0895C75.9986 130.008 75.8471 130.21 75.6349 130.426C75.4228 130.642 75.1406 130.826 74.7884 130.977C74.4361 131.129 74.0062 131.205 73.4986 131.205ZM73.7031 130C74.2334 130 74.6804 129.896 75.044 129.688C75.4115 129.479 75.688 129.21 75.8736 128.881C76.063 128.551 76.1577 128.205 76.1577 127.841V126.614C76.1009 126.682 75.9759 126.744 75.7827 126.801C75.5933 126.854 75.3736 126.902 75.1236 126.943C74.8774 126.981 74.6368 127.015 74.402 127.045C74.1709 127.072 73.9834 127.095 73.8395 127.114C73.491 127.159 73.1652 127.233 72.8622 127.335C72.563 127.434 72.3205 127.583 72.1349 127.784C71.9531 127.981 71.8622 128.25 71.8622 128.591C71.8622 129.057 72.0346 129.409 72.3793 129.648C72.7277 129.883 73.169 130 73.7031 130ZM83.7415 122.273V123.409H79.2188V122.273H83.7415ZM80.5369 120.182H81.8778V128.5C81.8778 128.879 81.9328 129.163 82.0426 129.352C82.1563 129.538 82.3002 129.663 82.4744 129.727C82.6525 129.788 82.84 129.818 83.0369 129.818C83.1847 129.818 83.3059 129.811 83.4006 129.795C83.4953 129.777 83.571 129.761 83.6278 129.75L83.9006 130.955C83.8097 130.989 83.6828 131.023 83.5199 131.057C83.357 131.095 83.1506 131.114 82.9006 131.114C82.5218 131.114 82.1506 131.032 81.7869 130.869C81.4271 130.706 81.1278 130.458 80.8892 130.125C80.6544 129.792 80.5369 129.371 80.5369 128.864V120.182ZM89.3239 131.182C88.483 131.182 87.7576 130.996 87.1477 130.625C86.5417 130.25 86.0739 129.727 85.7443 129.057C85.4186 128.383 85.2557 127.598 85.2557 126.705C85.2557 125.811 85.4186 125.023 85.7443 124.341C86.0739 123.655 86.5322 123.121 87.1193 122.739C87.7102 122.352 88.3996 122.159 89.1875 122.159C89.642 122.159 90.0909 122.235 90.5341 122.386C90.9773 122.538 91.3807 122.784 91.7443 123.125C92.108 123.462 92.3977 123.909 92.6136 124.466C92.8295 125.023 92.9375 125.708 92.9375 126.523V127.091H86.2102V125.932H91.5739C91.5739 125.439 91.4754 125 91.2784 124.614C91.0852 124.227 90.8087 123.922 90.4489 123.699C90.0928 123.475 89.6723 123.364 89.1875 123.364C88.6534 123.364 88.1913 123.496 87.8011 123.761C87.4148 124.023 87.1174 124.364 86.9091 124.784C86.7008 125.205 86.5966 125.655 86.5966 126.136V126.909C86.5966 127.568 86.7102 128.127 86.9375 128.585C87.1686 129.04 87.4886 129.386 87.8977 129.625C88.3068 129.86 88.7822 129.977 89.3239 129.977C89.6761 129.977 89.9943 129.928 90.2784 129.83C90.5663 129.727 90.8144 129.576 91.0227 129.375C91.2311 129.17 91.392 128.917 91.5057 128.614L92.8011 128.977C92.6648 129.417 92.4356 129.803 92.1136 130.136C91.7917 130.466 91.3939 130.723 90.9205 130.909C90.447 131.091 89.9148 131.182 89.3239 131.182ZM101.159 124.227L99.9545 124.568C99.8788 124.367 99.767 124.172 99.6193 123.983C99.4754 123.79 99.2784 123.631 99.0284 123.506C98.7784 123.381 98.4583 123.318 98.0682 123.318C97.5341 123.318 97.089 123.441 96.733 123.688C96.3807 123.93 96.2045 124.239 96.2045 124.614C96.2045 124.947 96.3258 125.21 96.5682 125.403C96.8106 125.597 97.1894 125.758 97.7045 125.886L99 126.205C99.7803 126.394 100.362 126.684 100.744 127.074C101.127 127.46 101.318 127.958 101.318 128.568C101.318 129.068 101.174 129.515 100.886 129.909C100.602 130.303 100.205 130.614 99.6932 130.841C99.1818 131.068 98.5871 131.182 97.9091 131.182C97.0189 131.182 96.2822 130.989 95.6989 130.602C95.1155 130.216 94.7462 129.652 94.5909 128.909L95.8636 128.591C95.9848 129.061 96.214 129.413 96.5511 129.648C96.892 129.883 97.3371 130 97.8864 130C98.5114 130 99.0076 129.867 99.375 129.602C99.7462 129.333 99.9318 129.011 99.9318 128.636C99.9318 128.333 99.8258 128.08 99.6136 127.875C99.4015 127.667 99.0758 127.511 98.6364 127.409L97.1818 127.068C96.3826 126.879 95.7955 126.585 95.4205 126.188C95.0492 125.786 94.8636 125.284 94.8636 124.682C94.8636 124.189 95.0019 123.754 95.2784 123.375C95.5587 122.996 95.9394 122.699 96.4205 122.483C96.9053 122.267 97.4545 122.159 98.0682 122.159C98.9318 122.159 99.6098 122.348 100.102 122.727C100.598 123.106 100.951 123.606 101.159 124.227ZM107.132 122.273V123.409H102.609V122.273H107.132ZM103.928 120.182H105.268V128.5C105.268 128.879 105.323 129.163 105.433 129.352C105.547 129.538 105.691 129.663 105.865 129.727C106.043 129.788 106.231 129.818 106.428 129.818C106.575 129.818 106.696 129.811 106.791 129.795C106.886 129.777 106.962 129.761 107.018 129.75L107.291 130.955C107.2 130.989 107.073 131.023 106.911 131.057C106.748 131.095 106.541 131.114 106.291 131.114C105.912 131.114 105.541 131.032 105.178 130.869C104.818 130.706 104.518 130.458 104.28 130.125C104.045 129.792 103.928 129.371 103.928 128.864V120.182ZM116.217 131.205C115.664 131.205 115.162 131.1 114.712 130.892C114.261 130.68 113.903 130.375 113.638 129.977C113.373 129.576 113.24 129.091 113.24 128.523C113.24 128.023 113.339 127.617 113.536 127.307C113.732 126.992 113.996 126.746 114.325 126.568C114.655 126.39 115.018 126.258 115.416 126.17C115.818 126.08 116.221 126.008 116.626 125.955C117.157 125.886 117.587 125.835 117.916 125.801C118.25 125.763 118.492 125.701 118.643 125.614C118.799 125.527 118.876 125.375 118.876 125.159V125.114C118.876 124.553 118.723 124.117 118.416 123.807C118.113 123.496 117.653 123.341 117.036 123.341C116.395 123.341 115.893 123.481 115.53 123.761C115.166 124.042 114.911 124.341 114.763 124.659L113.49 124.205C113.717 123.674 114.02 123.261 114.399 122.966C114.782 122.667 115.198 122.458 115.649 122.341C116.104 122.22 116.551 122.159 116.99 122.159C117.27 122.159 117.592 122.193 117.956 122.261C118.323 122.326 118.678 122.46 119.018 122.665C119.363 122.869 119.649 123.178 119.876 123.591C120.104 124.004 120.217 124.557 120.217 125.25V131H118.876V129.818H118.808C118.717 130.008 118.566 130.21 118.354 130.426C118.142 130.642 117.859 130.826 117.507 130.977C117.155 131.129 116.725 131.205 116.217 131.205ZM116.422 130C116.952 130 117.399 129.896 117.763 129.688C118.13 129.479 118.407 129.21 118.592 128.881C118.782 128.551 118.876 128.205 118.876 127.841V126.614C118.82 126.682 118.695 126.744 118.501 126.801C118.312 126.854 118.092 126.902 117.842 126.943C117.596 126.981 117.356 127.015 117.121 127.045C116.89 127.072 116.702 127.095 116.558 127.114C116.21 127.159 115.884 127.233 115.581 127.335C115.282 127.434 115.039 127.583 114.854 127.784C114.672 127.981 114.581 128.25 114.581 128.591C114.581 129.057 114.753 129.409 115.098 129.648C115.446 129.883 115.888 130 116.422 130ZM124.006 125.75V131H122.665V122.273H123.96V123.636H124.074C124.278 123.193 124.589 122.837 125.006 122.568C125.422 122.295 125.96 122.159 126.619 122.159C127.21 122.159 127.727 122.28 128.17 122.523C128.614 122.761 128.958 123.125 129.205 123.614C129.451 124.098 129.574 124.712 129.574 125.455V131H128.233V125.545C128.233 124.86 128.055 124.326 127.699 123.943C127.343 123.557 126.854 123.364 126.233 123.364C125.805 123.364 125.422 123.456 125.085 123.642C124.752 123.828 124.489 124.098 124.295 124.455C124.102 124.811 124.006 125.242 124.006 125.75ZM135.32 131.182C134.592 131.182 133.95 130.998 133.393 130.631C132.837 130.259 132.401 129.737 132.087 129.062C131.772 128.384 131.615 127.583 131.615 126.659C131.615 125.742 131.772 124.947 132.087 124.273C132.401 123.598 132.839 123.078 133.399 122.71C133.96 122.343 134.607 122.159 135.342 122.159C135.911 122.159 136.359 122.254 136.689 122.443C137.022 122.629 137.276 122.841 137.45 123.08C137.628 123.314 137.767 123.508 137.865 123.659H137.979V119.364H139.32V131H138.024V129.659H137.865C137.767 129.818 137.626 130.019 137.445 130.261C137.263 130.5 137.003 130.714 136.666 130.903C136.329 131.089 135.88 131.182 135.32 131.182ZM135.501 129.977C136.039 129.977 136.494 129.837 136.865 129.557C137.236 129.273 137.518 128.881 137.712 128.381C137.905 127.877 138.001 127.295 138.001 126.636C138.001 125.985 137.907 125.415 137.717 124.926C137.528 124.434 137.248 124.051 136.876 123.778C136.505 123.502 136.047 123.364 135.501 123.364C134.933 123.364 134.46 123.509 134.081 123.801C133.706 124.089 133.424 124.481 133.234 124.977C133.049 125.47 132.956 126.023 132.956 126.636C132.956 127.258 133.051 127.822 133.24 128.33C133.433 128.833 133.717 129.235 134.092 129.534C134.471 129.83 134.941 129.977 135.501 129.977ZM149.984 134.455C149.337 134.455 148.78 134.371 148.314 134.205C147.848 134.042 147.46 133.826 147.149 133.557C146.842 133.292 146.598 133.008 146.416 132.705L147.484 131.955C147.606 132.114 147.759 132.295 147.945 132.5C148.13 132.708 148.384 132.888 148.706 133.04C149.032 133.195 149.458 133.273 149.984 133.273C150.689 133.273 151.27 133.102 151.729 132.761C152.187 132.42 152.416 131.886 152.416 131.159V129.386H152.303C152.204 129.545 152.064 129.742 151.882 129.977C151.704 130.208 151.446 130.415 151.109 130.597C150.776 130.775 150.325 130.864 149.757 130.864C149.053 130.864 148.42 130.697 147.859 130.364C147.303 130.03 146.861 129.545 146.536 128.909C146.214 128.273 146.053 127.5 146.053 126.591C146.053 125.697 146.21 124.919 146.524 124.256C146.839 123.589 147.276 123.074 147.837 122.71C148.397 122.343 149.045 122.159 149.78 122.159C150.348 122.159 150.799 122.254 151.132 122.443C151.469 122.629 151.727 122.841 151.905 123.08C152.087 123.314 152.227 123.508 152.325 123.659H152.462V122.273H153.757V131.25C153.757 132 153.587 132.61 153.246 133.08C152.909 133.553 152.454 133.9 151.882 134.119C151.314 134.343 150.681 134.455 149.984 134.455ZM149.939 129.659C150.477 129.659 150.931 129.536 151.303 129.29C151.674 129.044 151.956 128.689 152.149 128.227C152.342 127.765 152.439 127.212 152.439 126.568C152.439 125.939 152.344 125.384 152.155 124.903C151.965 124.422 151.685 124.045 151.314 123.773C150.943 123.5 150.484 123.364 149.939 123.364C149.371 123.364 148.897 123.508 148.518 123.795C148.143 124.083 147.861 124.47 147.672 124.955C147.486 125.439 147.393 125.977 147.393 126.568C147.393 127.174 147.488 127.71 147.678 128.176C147.871 128.638 148.155 129.002 148.53 129.267C148.909 129.528 149.378 129.659 149.939 129.659ZM156.212 131V122.273H157.507V123.591H157.598C157.757 123.159 158.045 122.809 158.462 122.54C158.878 122.271 159.348 122.136 159.871 122.136C159.969 122.136 160.092 122.138 160.24 122.142C160.388 122.146 160.5 122.152 160.575 122.159V123.523C160.53 123.511 160.426 123.494 160.263 123.472C160.104 123.445 159.935 123.432 159.757 123.432C159.333 123.432 158.954 123.521 158.621 123.699C158.291 123.873 158.03 124.116 157.837 124.426C157.647 124.733 157.553 125.083 157.553 125.477V131H156.212ZM165.558 131.182C164.717 131.182 163.992 130.996 163.382 130.625C162.776 130.25 162.308 129.727 161.979 129.057C161.653 128.383 161.49 127.598 161.49 126.705C161.49 125.811 161.653 125.023 161.979 124.341C162.308 123.655 162.767 123.121 163.354 122.739C163.945 122.352 164.634 122.159 165.422 122.159C165.876 122.159 166.325 122.235 166.768 122.386C167.212 122.538 167.615 122.784 167.979 123.125C168.342 123.462 168.632 123.909 168.848 124.466C169.064 125.023 169.172 125.708 169.172 126.523V127.091H162.445V125.932H167.808C167.808 125.439 167.71 125 167.513 124.614C167.32 124.227 167.043 123.922 166.683 123.699C166.327 123.475 165.907 123.364 165.422 123.364C164.888 123.364 164.426 123.496 164.036 123.761C163.649 124.023 163.352 124.364 163.143 124.784C162.935 125.205 162.831 125.655 162.831 126.136V126.909C162.831 127.568 162.945 128.127 163.172 128.585C163.403 129.04 163.723 129.386 164.132 129.625C164.541 129.86 165.017 129.977 165.558 129.977C165.911 129.977 166.229 129.928 166.513 129.83C166.801 129.727 167.049 129.576 167.257 129.375C167.465 129.17 167.626 128.917 167.74 128.614L169.036 128.977C168.899 129.417 168.67 129.803 168.348 130.136C168.026 130.466 167.628 130.723 167.155 130.909C166.681 131.091 166.149 131.182 165.558 131.182ZM173.78 131.205C173.227 131.205 172.725 131.1 172.274 130.892C171.823 130.68 171.465 130.375 171.2 129.977C170.935 129.576 170.803 129.091 170.803 128.523C170.803 128.023 170.901 127.617 171.098 127.307C171.295 126.992 171.558 126.746 171.888 126.568C172.217 126.39 172.581 126.258 172.979 126.17C173.38 126.08 173.784 126.008 174.189 125.955C174.719 125.886 175.149 125.835 175.479 125.801C175.812 125.763 176.054 125.701 176.206 125.614C176.361 125.527 176.439 125.375 176.439 125.159V125.114C176.439 124.553 176.286 124.117 175.979 123.807C175.676 123.496 175.215 123.341 174.598 123.341C173.958 123.341 173.456 123.481 173.092 123.761C172.729 124.042 172.473 124.341 172.325 124.659L171.053 124.205C171.28 123.674 171.583 123.261 171.962 122.966C172.344 122.667 172.761 122.458 173.212 122.341C173.666 122.22 174.113 122.159 174.553 122.159C174.833 122.159 175.155 122.193 175.518 122.261C175.886 122.326 176.24 122.46 176.581 122.665C176.926 122.869 177.212 123.178 177.439 123.591C177.666 124.004 177.78 124.557 177.78 125.25V131H176.439V129.818H176.371C176.28 130.008 176.128 130.21 175.916 130.426C175.704 130.642 175.422 130.826 175.07 130.977C174.717 131.129 174.287 131.205 173.78 131.205ZM173.984 130C174.515 130 174.962 129.896 175.325 129.688C175.693 129.479 175.969 129.21 176.155 128.881C176.344 128.551 176.439 128.205 176.439 127.841V126.614C176.382 126.682 176.257 126.744 176.064 126.801C175.875 126.854 175.655 126.902 175.405 126.943C175.159 126.981 174.918 127.015 174.683 127.045C174.452 127.072 174.265 127.095 174.121 127.114C173.772 127.159 173.446 127.233 173.143 127.335C172.844 127.434 172.602 127.583 172.416 127.784C172.234 127.981 172.143 128.25 172.143 128.591C172.143 129.057 172.316 129.409 172.661 129.648C173.009 129.883 173.45 130 173.984 130ZM184.023 122.273V123.409H179.5V122.273H184.023ZM180.818 120.182H182.159V128.5C182.159 128.879 182.214 129.163 182.324 129.352C182.438 129.538 182.581 129.663 182.756 129.727C182.934 129.788 183.121 129.818 183.318 129.818C183.466 129.818 183.587 129.811 183.682 129.795C183.777 129.777 183.852 129.761 183.909 129.75L184.182 130.955C184.091 130.989 183.964 131.023 183.801 131.057C183.638 131.095 183.432 131.114 183.182 131.114C182.803 131.114 182.432 131.032 182.068 130.869C181.708 130.706 181.409 130.458 181.17 130.125C180.936 129.792 180.818 129.371 180.818 128.864V120.182ZM189.605 131.182C188.764 131.182 188.039 130.996 187.429 130.625C186.823 130.25 186.355 129.727 186.026 129.057C185.7 128.383 185.537 127.598 185.537 126.705C185.537 125.811 185.7 125.023 186.026 124.341C186.355 123.655 186.813 123.121 187.401 122.739C187.991 122.352 188.681 122.159 189.469 122.159C189.923 122.159 190.372 122.235 190.815 122.386C191.259 122.538 191.662 122.784 192.026 123.125C192.389 123.462 192.679 123.909 192.895 124.466C193.111 125.023 193.219 125.708 193.219 126.523V127.091H186.491V125.932H191.855C191.855 125.439 191.757 125 191.56 124.614C191.366 124.227 191.09 123.922 190.73 123.699C190.374 123.475 189.954 123.364 189.469 123.364C188.935 123.364 188.473 123.496 188.082 123.761C187.696 124.023 187.399 124.364 187.19 124.784C186.982 125.205 186.878 125.655 186.878 126.136V126.909C186.878 127.568 186.991 128.127 187.219 128.585C187.45 129.04 187.77 129.386 188.179 129.625C188.588 129.86 189.063 129.977 189.605 129.977C189.957 129.977 190.276 129.928 190.56 129.83C190.848 129.727 191.096 129.576 191.304 129.375C191.512 129.17 191.673 128.917 191.787 128.614L193.082 128.977C192.946 129.417 192.717 129.803 192.395 130.136C192.073 130.466 191.675 130.723 191.202 130.909C190.728 131.091 190.196 131.182 189.605 131.182ZM201.44 124.227L200.236 124.568C200.16 124.367 200.048 124.172 199.901 123.983C199.757 123.79 199.56 123.631 199.31 123.506C199.06 123.381 198.74 123.318 198.349 123.318C197.815 123.318 197.37 123.441 197.014 123.688C196.662 123.93 196.486 124.239 196.486 124.614C196.486 124.947 196.607 125.21 196.849 125.403C197.092 125.597 197.471 125.758 197.986 125.886L199.281 126.205C200.062 126.394 200.643 126.684 201.026 127.074C201.408 127.46 201.599 127.958 201.599 128.568C201.599 129.068 201.455 129.515 201.168 129.909C200.884 130.303 200.486 130.614 199.974 130.841C199.463 131.068 198.868 131.182 198.19 131.182C197.3 131.182 196.563 130.989 195.98 130.602C195.397 130.216 195.027 129.652 194.872 128.909L196.145 128.591C196.266 129.061 196.495 129.413 196.832 129.648C197.173 129.883 197.618 130 198.168 130C198.793 130 199.289 129.867 199.656 129.602C200.027 129.333 200.213 129.011 200.213 128.636C200.213 128.333 200.107 128.08 199.895 127.875C199.683 127.667 199.357 127.511 198.918 127.409L197.463 127.068C196.664 126.879 196.077 126.585 195.702 126.188C195.33 125.786 195.145 125.284 195.145 124.682C195.145 124.189 195.283 123.754 195.56 123.375C195.84 122.996 196.221 122.699 196.702 122.483C197.187 122.267 197.736 122.159 198.349 122.159C199.213 122.159 199.891 122.348 200.384 122.727C200.88 123.106 201.232 123.606 201.44 124.227ZM207.413 122.273V123.409H202.891V122.273H207.413ZM204.209 120.182H205.55V128.5C205.55 128.879 205.605 129.163 205.714 129.352C205.828 129.538 205.972 129.663 206.146 129.727C206.324 129.788 206.512 129.818 206.709 129.818C206.857 129.818 206.978 129.811 207.072 129.795C207.167 129.777 207.243 129.761 207.3 129.75L207.572 130.955C207.482 130.989 207.355 131.023 207.192 131.057C207.029 131.095 206.822 131.114 206.572 131.114C206.194 131.114 205.822 131.032 205.459 130.869C205.099 130.706 204.8 130.458 204.561 130.125C204.326 129.792 204.209 129.371 204.209 128.864V120.182ZM220.112 124.227L218.908 124.568C218.832 124.367 218.72 124.172 218.572 123.983C218.429 123.79 218.232 123.631 217.982 123.506C217.732 123.381 217.411 123.318 217.021 123.318C216.487 123.318 216.042 123.441 215.686 123.688C215.334 123.93 215.158 124.239 215.158 124.614C215.158 124.947 215.279 125.21 215.521 125.403C215.764 125.597 216.143 125.758 216.658 125.886L217.953 126.205C218.733 126.394 219.315 126.684 219.697 127.074C220.08 127.46 220.271 127.958 220.271 128.568C220.271 129.068 220.127 129.515 219.839 129.909C219.555 130.303 219.158 130.614 218.646 130.841C218.135 131.068 217.54 131.182 216.862 131.182C215.972 131.182 215.235 130.989 214.652 130.602C214.069 130.216 213.699 129.652 213.544 128.909L214.817 128.591C214.938 129.061 215.167 129.413 215.504 129.648C215.845 129.883 216.29 130 216.839 130C217.464 130 217.961 129.867 218.328 129.602C218.699 129.333 218.885 129.011 218.885 128.636C218.885 128.333 218.779 128.08 218.567 127.875C218.355 127.667 218.029 127.511 217.589 127.409L216.135 127.068C215.336 126.879 214.749 126.585 214.374 126.188C214.002 125.786 213.817 125.284 213.817 124.682C213.817 124.189 213.955 123.754 214.232 123.375C214.512 122.996 214.893 122.699 215.374 122.483C215.858 122.267 216.408 122.159 217.021 122.159C217.885 122.159 218.563 122.348 219.055 122.727C219.552 123.106 219.904 123.606 220.112 124.227ZM222.29 131V122.273H223.585V123.636H223.699C223.881 123.17 224.174 122.809 224.58 122.551C224.985 122.29 225.472 122.159 226.04 122.159C226.616 122.159 227.095 122.29 227.477 122.551C227.864 122.809 228.165 123.17 228.381 123.636H228.472C228.695 123.186 229.03 122.828 229.477 122.562C229.924 122.294 230.46 122.159 231.085 122.159C231.866 122.159 232.504 122.403 233 122.892C233.496 123.377 233.744 124.133 233.744 125.159V131H232.403V125.159C232.403 124.515 232.227 124.055 231.875 123.778C231.523 123.502 231.108 123.364 230.631 123.364C230.017 123.364 229.542 123.549 229.205 123.92C228.867 124.288 228.699 124.754 228.699 125.318V131H227.335V125.023C227.335 124.527 227.174 124.127 226.852 123.824C226.53 123.517 226.116 123.364 225.608 123.364C225.259 123.364 224.934 123.456 224.631 123.642C224.331 123.828 224.089 124.085 223.903 124.415C223.722 124.741 223.631 125.117 223.631 125.545V131H222.29ZM238.764 131.205C238.211 131.205 237.709 131.1 237.259 130.892C236.808 130.68 236.45 130.375 236.185 129.977C235.92 129.576 235.787 129.091 235.787 128.523C235.787 128.023 235.885 127.617 236.082 127.307C236.279 126.992 236.543 126.746 236.872 126.568C237.202 126.39 237.565 126.258 237.963 126.17C238.365 126.08 238.768 126.008 239.173 125.955C239.704 125.886 240.134 125.835 240.463 125.801C240.796 125.763 241.039 125.701 241.19 125.614C241.346 125.527 241.423 125.375 241.423 125.159V125.114C241.423 124.553 241.27 124.117 240.963 123.807C240.66 123.496 240.2 123.341 239.582 123.341C238.942 123.341 238.44 123.481 238.077 123.761C237.713 124.042 237.457 124.341 237.31 124.659L236.037 124.205C236.264 123.674 236.567 123.261 236.946 122.966C237.329 122.667 237.745 122.458 238.196 122.341C238.651 122.22 239.098 122.159 239.537 122.159C239.817 122.159 240.139 122.193 240.503 122.261C240.87 122.326 241.224 122.46 241.565 122.665C241.91 122.869 242.196 123.178 242.423 123.591C242.651 124.004 242.764 124.557 242.764 125.25V131H241.423V129.818H241.355C241.264 130.008 241.113 130.21 240.901 130.426C240.688 130.642 240.406 130.826 240.054 130.977C239.702 131.129 239.272 131.205 238.764 131.205ZM238.969 130C239.499 130 239.946 129.896 240.31 129.688C240.677 129.479 240.954 129.21 241.139 128.881C241.329 128.551 241.423 128.205 241.423 127.841V126.614C241.366 126.682 241.241 126.744 241.048 126.801C240.859 126.854 240.639 126.902 240.389 126.943C240.143 126.981 239.902 127.015 239.668 127.045C239.437 127.072 239.249 127.095 239.105 127.114C238.757 127.159 238.431 127.233 238.128 127.335C237.829 127.434 237.586 127.583 237.401 127.784C237.219 127.981 237.128 128.25 237.128 128.591C237.128 129.057 237.3 129.409 237.645 129.648C237.993 129.883 238.435 130 238.969 130ZM245.212 131V122.273H246.507V123.591H246.598C246.757 123.159 247.045 122.809 247.462 122.54C247.878 122.271 248.348 122.136 248.871 122.136C248.969 122.136 249.092 122.138 249.24 122.142C249.388 122.146 249.5 122.152 249.575 122.159V123.523C249.53 123.511 249.426 123.494 249.263 123.472C249.104 123.445 248.935 123.432 248.757 123.432C248.333 123.432 247.954 123.521 247.621 123.699C247.291 123.873 247.03 124.116 246.837 124.426C246.647 124.733 246.553 125.083 246.553 125.477V131H245.212ZM255.507 122.273V123.409H250.984V122.273H255.507ZM252.303 120.182H253.643V128.5C253.643 128.879 253.698 129.163 253.808 129.352C253.922 129.538 254.066 129.663 254.24 129.727C254.418 129.788 254.606 129.818 254.803 129.818C254.95 129.818 255.071 129.811 255.166 129.795C255.261 129.777 255.337 129.761 255.393 129.75L255.666 130.955C255.575 130.989 255.448 131.023 255.286 131.057C255.123 131.095 254.916 131.114 254.666 131.114C254.287 131.114 253.916 131.032 253.553 130.869C253.193 130.706 252.893 130.458 252.655 130.125C252.42 129.792 252.303 129.371 252.303 128.864V120.182ZM265.32 131.182C264.592 131.182 263.95 130.998 263.393 130.631C262.837 130.259 262.401 129.737 262.087 129.062C261.772 128.384 261.615 127.583 261.615 126.659C261.615 125.742 261.772 124.947 262.087 124.273C262.401 123.598 262.839 123.078 263.399 122.71C263.96 122.343 264.607 122.159 265.342 122.159C265.911 122.159 266.359 122.254 266.689 122.443C267.022 122.629 267.276 122.841 267.45 123.08C267.628 123.314 267.767 123.508 267.865 123.659H267.979V119.364H269.32V131H268.024V129.659H267.865C267.767 129.818 267.626 130.019 267.445 130.261C267.263 130.5 267.003 130.714 266.666 130.903C266.329 131.089 265.88 131.182 265.32 131.182ZM265.501 129.977C266.039 129.977 266.494 129.837 266.865 129.557C267.236 129.273 267.518 128.881 267.712 128.381C267.905 127.877 268.001 127.295 268.001 126.636C268.001 125.985 267.907 125.415 267.717 124.926C267.528 124.434 267.248 124.051 266.876 123.778C266.505 123.502 266.047 123.364 265.501 123.364C264.933 123.364 264.46 123.509 264.081 123.801C263.706 124.089 263.424 124.481 263.234 124.977C263.049 125.47 262.956 126.023 262.956 126.636C262.956 127.258 263.051 127.822 263.24 128.33C263.433 128.833 263.717 129.235 264.092 129.534C264.471 129.83 264.941 129.977 265.501 129.977ZM275.621 131.182C274.78 131.182 274.054 130.996 273.445 130.625C272.839 130.25 272.371 129.727 272.041 129.057C271.715 128.383 271.553 127.598 271.553 126.705C271.553 125.811 271.715 125.023 272.041 124.341C272.371 123.655 272.829 123.121 273.416 122.739C274.007 122.352 274.696 122.159 275.484 122.159C275.939 122.159 276.388 122.235 276.831 122.386C277.274 122.538 277.678 122.784 278.041 123.125C278.405 123.462 278.695 123.909 278.911 124.466C279.126 125.023 279.234 125.708 279.234 126.523V127.091H272.507V125.932H277.871C277.871 125.439 277.772 125 277.575 124.614C277.382 124.227 277.106 123.922 276.746 123.699C276.39 123.475 275.969 123.364 275.484 123.364C274.95 123.364 274.488 123.496 274.098 123.761C273.712 124.023 273.414 124.364 273.206 124.784C272.998 125.205 272.893 125.655 272.893 126.136V126.909C272.893 127.568 273.007 128.127 273.234 128.585C273.465 129.04 273.786 129.386 274.195 129.625C274.604 129.86 275.079 129.977 275.621 129.977C275.973 129.977 276.291 129.928 276.575 129.83C276.863 129.727 277.111 129.576 277.32 129.375C277.528 129.17 277.689 128.917 277.803 128.614L279.098 128.977C278.962 129.417 278.732 129.803 278.411 130.136C278.089 130.466 277.691 130.723 277.217 130.909C276.744 131.091 276.212 131.182 275.621 131.182ZM288.145 122.273L284.918 131H283.554L280.327 122.273H281.781L284.19 129.227H284.281L286.69 122.273H288.145ZM289.915 131V122.273H291.256V131H289.915ZM290.597 120.818C290.335 120.818 290.11 120.729 289.92 120.551C289.735 120.373 289.642 120.159 289.642 119.909C289.642 119.659 289.735 119.445 289.92 119.267C290.11 119.089 290.335 119 290.597 119C290.858 119 291.081 119.089 291.267 119.267C291.456 119.445 291.551 119.659 291.551 119.909C291.551 120.159 291.456 120.373 291.267 120.551C291.081 120.729 290.858 120.818 290.597 120.818ZM297.257 131.182C296.439 131.182 295.734 130.989 295.143 130.602C294.553 130.216 294.098 129.684 293.78 129.006C293.462 128.328 293.303 127.553 293.303 126.682C293.303 125.795 293.465 125.013 293.791 124.335C294.121 123.653 294.579 123.121 295.166 122.739C295.757 122.352 296.446 122.159 297.234 122.159C297.848 122.159 298.401 122.273 298.893 122.5C299.386 122.727 299.789 123.045 300.104 123.455C300.418 123.864 300.613 124.341 300.689 124.886H299.348C299.246 124.489 299.018 124.136 298.666 123.83C298.318 123.519 297.848 123.364 297.257 123.364C296.734 123.364 296.276 123.5 295.882 123.773C295.492 124.042 295.187 124.422 294.967 124.915C294.751 125.403 294.643 125.977 294.643 126.636C294.643 127.311 294.75 127.898 294.962 128.398C295.178 128.898 295.481 129.286 295.871 129.562C296.265 129.839 296.727 129.977 297.257 129.977C297.606 129.977 297.922 129.917 298.206 129.795C298.49 129.674 298.731 129.5 298.928 129.273C299.125 129.045 299.265 128.773 299.348 128.455H300.689C300.613 128.97 300.426 129.434 300.126 129.847C299.831 130.256 299.439 130.581 298.95 130.824C298.465 131.062 297.901 131.182 297.257 131.182ZM306.308 131.182C305.467 131.182 304.742 130.996 304.132 130.625C303.526 130.25 303.058 129.727 302.729 129.057C302.403 128.383 302.24 127.598 302.24 126.705C302.24 125.811 302.403 125.023 302.729 124.341C303.058 123.655 303.517 123.121 304.104 122.739C304.695 122.352 305.384 122.159 306.172 122.159C306.626 122.159 307.075 122.235 307.518 122.386C307.962 122.538 308.365 122.784 308.729 123.125C309.092 123.462 309.382 123.909 309.598 124.466C309.814 125.023 309.922 125.708 309.922 126.523V127.091H303.195V125.932H308.558C308.558 125.439 308.46 125 308.263 124.614C308.07 124.227 307.793 123.922 307.433 123.699C307.077 123.475 306.657 123.364 306.172 123.364C305.638 123.364 305.176 123.496 304.786 123.761C304.399 124.023 304.102 124.364 303.893 124.784C303.685 125.205 303.581 125.655 303.581 126.136V126.909C303.581 127.568 303.695 128.127 303.922 128.585C304.153 129.04 304.473 129.386 304.882 129.625C305.291 129.86 305.767 129.977 306.308 129.977C306.661 129.977 306.979 129.928 307.263 129.83C307.551 129.727 307.799 129.576 308.007 129.375C308.215 129.17 308.376 128.917 308.49 128.614L309.786 128.977C309.649 129.417 309.42 129.803 309.098 130.136C308.776 130.466 308.378 130.723 307.905 130.909C307.431 131.091 306.899 131.182 306.308 131.182ZM318.143 124.227L316.939 124.568C316.863 124.367 316.751 124.172 316.604 123.983C316.46 123.79 316.263 123.631 316.013 123.506C315.763 123.381 315.443 123.318 315.053 123.318C314.518 123.318 314.073 123.441 313.717 123.688C313.365 123.93 313.189 124.239 313.189 124.614C313.189 124.947 313.31 125.21 313.553 125.403C313.795 125.597 314.174 125.758 314.689 125.886L315.984 126.205C316.765 126.394 317.346 126.684 317.729 127.074C318.111 127.46 318.303 127.958 318.303 128.568C318.303 129.068 318.159 129.515 317.871 129.909C317.587 130.303 317.189 130.614 316.678 130.841C316.166 131.068 315.571 131.182 314.893 131.182C314.003 131.182 313.267 130.989 312.683 130.602C312.1 130.216 311.731 129.652 311.575 128.909L312.848 128.591C312.969 129.061 313.198 129.413 313.536 129.648C313.876 129.883 314.321 130 314.871 130C315.496 130 315.992 129.867 316.359 129.602C316.731 129.333 316.916 129.011 316.916 128.636C316.916 128.333 316.81 128.08 316.598 127.875C316.386 127.667 316.06 127.511 315.621 127.409L314.166 127.068C313.367 126.879 312.78 126.585 312.405 126.188C312.034 125.786 311.848 125.284 311.848 124.682C311.848 124.189 311.986 123.754 312.263 123.375C312.543 122.996 312.924 122.699 313.405 122.483C313.89 122.267 314.439 122.159 315.053 122.159C315.916 122.159 316.594 122.348 317.087 122.727C317.583 123.106 317.935 123.606 318.143 124.227Z" fill="black"/>
<path d="M86.4205 93.9545C80.9886 93.9545 76.1364 93.0909 71.8636 91.3636C67.6136 89.6136 64.2727 87.25 61.8409 84.2727C59.4318 81.2727 58.2273 77.8864 58.2273 74.1136C58.2273 71.2273 58.9205 68.5795 60.3068 66.1705C61.6932 63.7614 63.5682 61.7614 65.9318 60.1705C68.3182 58.5568 70.9773 57.5227 73.9091 57.0682V56.5227C70.0682 55.8182 66.9205 54.0341 64.4659 51.1705C62.0341 48.3068 60.8182 44.9545 60.8182 41.1136C60.8182 37.4773 61.9205 34.2386 64.125 31.3977C66.3523 28.5568 69.3864 26.3182 73.2273 24.6818C77.0909 23.0455 81.4886 22.2273 86.4205 22.2273C91.3523 22.2273 95.7386 23.0455 99.5795 24.6818C103.443 26.3182 106.477 28.5568 108.682 31.3977C110.909 34.2386 112.023 37.4773 112.023 41.1136C112.023 44.9773 110.784 48.3409 108.307 51.2045C105.852 54.0455 102.727 55.8182 98.9318 56.5227V57.0682C101.841 57.5227 104.477 58.5568 106.841 60.1705C109.227 61.7614 111.114 63.7614 112.5 66.1705C113.909 68.5795 114.614 71.2273 114.614 74.1136C114.614 77.8864 113.398 81.2727 110.966 84.2727C108.534 87.25 105.193 89.6136 100.943 91.3636C96.7159 93.0909 91.875 93.9545 86.4205 93.9545ZM86.4205 81.9886C88.4886 81.9886 90.3068 81.6023 91.875 80.8295C93.4432 80.0341 94.6705 78.9318 95.5568 77.5227C96.4659 76.1136 96.9205 74.5227 96.9205 72.75C96.9205 70.9318 96.4659 69.3182 95.5568 67.9091C94.6477 66.5 93.3977 65.3977 91.8068 64.6023C90.2386 63.7841 88.4432 63.375 86.4205 63.375C84.4205 63.375 82.625 63.7841 81.0341 64.6023C79.4432 65.3977 78.1932 66.5 77.2841 67.9091C76.375 69.3182 75.9205 70.9318 75.9205 72.75C75.9205 74.5227 76.3636 76.1136 77.25 77.5227C78.1591 78.9091 79.3977 80 80.9659 80.7955C82.5568 81.5909 84.375 81.9886 86.4205 81.9886ZM86.4205 51.4773C88.1932 51.4773 89.7614 51.1136 91.125 50.3864C92.5114 49.6591 93.5909 48.6477 94.3636 47.3523C95.1591 46.0568 95.5568 44.5909 95.5568 42.9545C95.5568 41.3182 95.1591 39.875 94.3636 38.625C93.5909 37.375 92.5227 36.3977 91.1591 35.6932C89.7955 34.9659 88.2159 34.6023 86.4205 34.6023C84.6477 34.6023 83.0682 34.9659 81.6818 35.6932C80.2955 36.3977 79.2159 37.375 78.4432 38.625C77.6705 39.875 77.2841 41.3182 77.2841 42.9545C77.2841 44.5909 77.6705 46.0568 78.4432 47.3523C79.2386 48.625 80.3295 49.6364 81.7159 50.3864C83.1023 51.1136 84.6705 51.4773 86.4205 51.4773ZM146.898 94.7045C140.807 94.7045 135.557 93.2614 131.148 90.375C126.739 87.4659 123.341 83.2955 120.955 77.8636C118.568 72.4091 117.386 65.8523 117.409 58.1932C117.432 50.5341 118.625 44.0341 120.989 38.6932C123.375 33.3295 126.761 29.25 131.148 26.4545C135.557 23.6364 140.807 22.2273 146.898 22.2273C152.989 22.2273 158.239 23.6364 162.648 26.4545C167.08 29.25 170.489 33.3295 172.875 38.6932C175.261 44.0568 176.443 50.5568 176.42 58.1932C176.42 65.875 175.227 72.4432 172.841 77.8977C170.455 83.3523 167.057 87.5227 162.648 90.4091C158.261 93.2727 153.011 94.7045 146.898 94.7045ZM146.898 80.8977C150.534 80.8977 153.477 79.0455 155.727 75.3409C157.977 71.6136 159.091 65.8977 159.068 58.1932C159.068 53.1477 158.557 48.9886 157.534 45.7159C156.511 42.4205 155.091 39.9659 153.273 38.3523C151.455 36.7386 149.33 35.9318 146.898 35.9318C143.284 35.9318 140.364 37.7614 138.136 41.4205C135.909 45.0568 134.784 50.6477 134.761 58.1932C134.739 63.3068 135.227 67.5455 136.227 70.9091C137.25 74.2727 138.682 76.7841 140.523 78.4432C142.364 80.0795 144.489 80.8977 146.898 80.8977Z" fill="black"/>
<path d="M70.483 8.36364H72.5909V15.9659C72.5909 16.7992 72.3939 17.5322 72 18.1648C71.6098 18.7973 71.0606 19.2917 70.3523 19.6477C69.6439 20 68.8163 20.1761 67.8693 20.1761C66.9186 20.1761 66.089 20 65.3807 19.6477C64.6723 19.2917 64.1231 18.7973 63.733 18.1648C63.3428 17.5322 63.1477 16.7992 63.1477 15.9659V8.36364H65.2557V15.7898C65.2557 16.2746 65.3617 16.7064 65.5739 17.0852C65.7898 17.464 66.0928 17.7614 66.483 17.9773C66.8731 18.1894 67.3352 18.2955 67.8693 18.2955C68.4034 18.2955 68.8655 18.1894 69.2557 17.9773C69.6496 17.7614 69.9527 17.464 70.1648 17.0852C70.3769 16.7064 70.483 16.2746 70.483 15.7898V8.36364ZM74.8821 20V8.36364H79.2457C80.1397 8.36364 80.8897 8.5303 81.4957 8.86364C82.1056 9.19697 82.5658 9.6553 82.8764 10.2386C83.1908 10.8182 83.348 11.4773 83.348 12.2159C83.348 12.9621 83.1908 13.625 82.8764 14.2045C82.562 14.7841 82.098 15.2405 81.4844 15.5739C80.8707 15.9034 80.1151 16.0682 79.2173 16.0682H76.3253V14.3352H78.9332C79.456 14.3352 79.884 14.2443 80.2173 14.0625C80.5507 13.8807 80.7969 13.6307 80.956 13.3125C81.1188 12.9943 81.2003 12.6288 81.2003 12.2159C81.2003 11.803 81.1188 11.4394 80.956 11.125C80.7969 10.8106 80.5488 10.5663 80.2116 10.392C79.8783 10.214 79.4484 10.125 78.9219 10.125H76.9901V20H74.8821ZM88.6364 10.1307V8.36364H97.9205V10.1307H94.3239V20H92.233V10.1307H88.6364ZM109.592 14.1818C109.592 15.4356 109.357 16.5095 108.888 17.4034C108.422 18.2936 107.786 18.9754 106.979 19.4489C106.176 19.9223 105.265 20.1591 104.246 20.1591C103.227 20.1591 102.314 19.9223 101.507 19.4489C100.704 18.9716 100.068 18.2879 99.598 17.3977C99.1321 16.5038 98.8991 15.4318 98.8991 14.1818C98.8991 12.928 99.1321 11.8561 99.598 10.9659C100.068 10.072 100.704 9.38826 101.507 8.91477C102.314 8.44129 103.227 8.20455 104.246 8.20455C105.265 8.20455 106.176 8.44129 106.979 8.91477C107.786 9.38826 108.422 10.072 108.888 10.9659C109.357 11.8561 109.592 12.928 109.592 14.1818ZM107.473 14.1818C107.473 13.2992 107.335 12.5549 107.058 11.9489C106.786 11.339 106.407 10.8788 105.922 10.5682C105.437 10.2538 104.878 10.0966 104.246 10.0966C103.613 10.0966 103.054 10.2538 102.57 10.5682C102.085 10.8788 101.704 11.339 101.428 11.9489C101.155 12.5549 101.018 13.2992 101.018 14.1818C101.018 15.0644 101.155 15.8106 101.428 16.4205C101.704 17.0265 102.085 17.4867 102.57 17.8011C103.054 18.1117 103.613 18.267 104.246 18.267C104.878 18.267 105.437 18.1117 105.922 17.8011C106.407 17.4867 106.786 17.0265 107.058 16.4205C107.335 15.8106 107.473 15.0644 107.473 14.1818Z" fill="black" fill-opacity="0.5"/>
<path d="M197.938 48.4545V46.6136C197.938 45.2159 198.233 43.9318 198.824 42.7614C199.426 41.5795 200.295 40.6364 201.432 39.9318C202.58 39.2159 203.977 38.858 205.625 38.858C207.295 38.858 208.699 39.2102 209.835 39.9148C210.983 40.6193 211.847 41.5625 212.426 42.7443C213.017 43.9148 213.312 45.2045 213.312 46.6136V48.4545C213.312 49.8523 213.017 51.142 212.426 52.3239C211.835 53.4943 210.966 54.4318 209.818 55.1364C208.67 55.8523 207.273 56.2102 205.625 56.2102C203.955 56.2102 202.551 55.8523 201.415 55.1364C200.278 54.4318 199.415 53.4943 198.824 52.3239C198.233 51.142 197.938 49.8523 197.938 48.4545ZM202.898 46.6136V48.4545C202.898 49.2614 203.091 50.0227 203.477 50.7386C203.875 51.4545 204.591 51.8125 205.625 51.8125C206.659 51.8125 207.364 51.4602 207.739 50.7557C208.125 50.0511 208.318 49.2841 208.318 48.4545V46.6136C208.318 45.7841 208.136 45.0114 207.773 44.2955C207.409 43.5795 206.693 43.2216 205.625 43.2216C204.602 43.2216 203.892 43.5795 203.494 44.2955C203.097 45.0114 202.898 45.7841 202.898 46.6136ZM180.023 28.4773V26.6364C180.023 25.2273 180.324 23.9375 180.926 22.767C181.528 21.5852 182.398 20.642 183.534 19.9375C184.682 19.233 186.068 18.8807 187.693 18.8807C189.375 18.8807 190.784 19.233 191.92 19.9375C193.057 20.642 193.92 21.5852 194.511 22.767C195.102 23.9375 195.398 25.2273 195.398 26.6364V28.4773C195.398 29.8864 195.097 31.1761 194.494 32.3466C193.903 33.517 193.034 34.4545 191.886 35.1591C190.75 35.8523 189.352 36.1989 187.693 36.1989C186.034 36.1989 184.631 35.8466 183.483 35.142C182.347 34.4261 181.483 33.4886 180.892 32.3295C180.313 31.1591 180.023 29.875 180.023 28.4773ZM185.017 26.6364V28.4773C185.017 29.3068 185.21 30.0739 185.597 30.7784C185.994 31.483 186.693 31.8352 187.693 31.8352C188.739 31.8352 189.449 31.483 189.824 30.7784C190.21 30.0739 190.403 29.3068 190.403 28.4773V26.6364C190.403 25.8068 190.222 25.0341 189.858 24.3182C189.494 23.6023 188.773 23.2443 187.693 23.2443C186.682 23.2443 185.983 23.608 185.597 24.3352C185.21 25.0625 185.017 25.8295 185.017 26.6364ZM182.273 55L206.273 20.0909H210.739L186.739 55H182.273Z" fill="#1DAB6E"/>
<path d="M211.114 77.5455C211.114 81.3523 210.392 84.5909 208.949 87.2614C207.517 89.9318 205.563 91.9716 203.085 93.3807C200.619 94.7784 197.847 95.4773 194.767 95.4773C191.665 95.4773 188.881 94.7727 186.415 93.3636C183.949 91.9545 182 89.9148 180.568 87.2443C179.136 84.5739 178.42 81.3409 178.42 77.5455C178.42 73.7386 179.136 70.5 180.568 67.8295C182 65.1591 183.949 63.125 186.415 61.7273C188.881 60.3182 191.665 59.6136 194.767 59.6136C197.847 59.6136 200.619 60.3182 203.085 61.7273C205.563 63.125 207.517 65.1591 208.949 67.8295C210.392 70.5 211.114 73.7386 211.114 77.5455ZM203.631 77.5455C203.631 75.0795 203.261 73 202.523 71.3068C201.795 69.6136 200.767 68.3295 199.438 67.4545C198.108 66.5795 196.551 66.142 194.767 66.142C192.983 66.142 191.426 66.5795 190.097 67.4545C188.767 68.3295 187.733 69.6136 186.994 71.3068C186.267 73 185.903 75.0795 185.903 77.5455C185.903 80.0114 186.267 82.0909 186.994 83.7841C187.733 85.4773 188.767 86.7614 190.097 87.6364C191.426 88.5114 192.983 88.9489 194.767 88.9489C196.551 88.9489 198.108 88.5114 199.438 87.6364C200.767 86.7614 201.795 85.4773 202.523 83.7841C203.261 82.0909 203.631 80.0114 203.631 77.5455ZM216.581 95V60.0909H239.695V66.1761H223.962V74.4943H238.161V80.5795H223.962V95H216.581ZM244.659 95V60.0909H267.773V66.1761H252.04V74.4943H266.239V80.5795H252.04V95H244.659Z" fill="#1DAB6E"/>
<g filter="url(#filter0_f_12787_47743)">
<ellipse cx="155.502" cy="351.49" rx="75.5" ry="5" fill="#DCDCDC"/>
</g>
<rect x="133.318" y="154" width="105" height="179" rx="18" transform="rotate(15 133.318 154)" fill="#1DAB6E"/>
<path d="M218.429 176.805L149.63 158.371C144.995 157.42 140.175 158.326 136.219 160.89C132.263 163.454 129.489 167.47 128.501 172.065L91.1207 311.569C89.6791 316.043 90.0731 320.908 92.2173 325.106C94.3614 329.305 98.0825 332.499 102.572 333.994L171.371 352.428C176.006 353.378 180.826 352.473 184.782 349.909C188.738 347.345 191.512 343.329 192.5 338.734L229.88 199.23C231.322 194.756 230.928 189.891 228.784 185.692C226.639 181.494 222.918 178.3 218.429 176.805ZM185.228 336.785C184.748 339.463 183.231 341.845 181.003 343.418C178.774 344.992 176.011 345.633 173.306 345.204L104.508 326.77C101.951 325.789 99.8785 323.852 98.7355 321.375C97.5925 318.898 97.4696 316.077 98.3933 313.518L135.773 174.014C136.253 171.336 137.77 168.954 139.998 167.38C142.227 165.807 144.99 165.166 147.695 165.595L158.822 168.576L157.835 172.26C157.321 174.176 157.595 176.219 158.596 177.939C159.597 179.659 161.243 180.916 163.171 181.433L195.171 190.007C197.1 190.524 199.153 190.258 200.88 189.269C202.607 188.28 203.866 186.647 204.379 184.732L205.366 181.048L216.493 184.029C219.05 185.01 221.122 186.947 222.265 189.424C223.408 191.901 223.531 194.722 222.608 197.281L185.228 336.785Z" fill="black"/>
<path d="M129.374 312.397L158.269 320.14C159.226 320.396 160.247 320.262 161.106 319.766C161.965 319.27 162.592 318.453 162.848 317.495C163.105 316.538 162.971 315.517 162.475 314.658C161.979 313.799 161.162 313.172 160.204 312.916L131.309 305.173C130.351 304.917 129.331 305.051 128.472 305.547C127.613 306.043 126.986 306.86 126.729 307.817C126.473 308.775 126.607 309.796 127.103 310.655C127.599 311.514 128.416 312.14 129.374 312.397Z" fill="black"/>
<path d="M183.457 225.29C177.215 223.617 171.015 224.893 166.367 228.613C164.201 223.068 159.47 218.862 153.228 217.19C148.258 215.864 142.953 216.606 138.478 219.252C134.003 221.898 130.724 226.233 129.359 231.305C123.569 252.911 150.257 278.809 151.4 279.886C151.701 280.174 152.067 280.381 152.467 280.488C152.867 280.595 153.288 280.599 153.692 280.5C155.22 280.139 191.282 271.054 197.071 249.448C198.425 244.373 197.752 238.979 195.199 234.45C192.647 229.921 188.424 226.627 183.457 225.29ZM153.886 275.193L163.049 240.994C164.011 237.407 166.215 234.284 169.252 232.204C172.288 230.124 175.951 229.229 179.561 229.684C180.427 229.822 181.286 230.003 182.133 230.228C185.819 231.221 188.951 233.665 190.845 237.025C192.738 240.385 193.238 244.387 192.234 248.152C187.8 264.699 160.283 273.384 153.886 275.193Z" fill="white"/>
<rect x="25.7938" y="163.092" width="86" height="25" rx="4.5" transform="rotate(13.3634 25.7938 163.092)" fill="#1DAB6E"/>
<rect x="25.7938" y="163.092" width="86" height="25" rx="4.5" transform="rotate(13.3634 25.7938 163.092)" stroke="black"/>
<path d="M44.02 175.691L45.3495 176.007L46.6617 184.385L46.7695 184.411L51.7094 177.518L53.0389 177.834L50.8537 187.032L49.8117 186.785L51.4719 179.796L51.3821 179.775L46.8473 186.081L45.8412 185.842L44.6269 178.17L44.5371 178.149L42.8768 185.138L41.8348 184.89L44.02 175.691ZM55.7119 188.338C55.0891 188.19 54.5778 187.912 54.1782 187.504C53.7815 187.097 53.5147 186.595 53.3778 186C53.2439 185.405 53.2616 184.751 53.4309 184.039C53.6016 183.32 53.8809 182.724 54.2687 182.249C54.6595 181.776 55.1237 181.447 55.6613 181.261C56.2018 181.076 56.7835 181.058 57.4063 181.206C58.0291 181.354 58.5389 181.632 58.9356 182.039C59.3352 182.447 59.6017 182.95 59.7349 183.548C59.871 184.147 59.8538 184.805 59.683 185.524C59.5137 186.236 59.234 186.828 58.8439 187.298C58.4568 187.769 57.993 188.097 57.4524 188.282C56.9149 188.468 56.3347 188.486 55.7119 188.338ZM55.9381 187.386C56.4112 187.499 56.8293 187.47 57.1923 187.3C57.5554 187.13 57.8572 186.865 58.0978 186.504C58.3384 186.144 58.5135 185.733 58.623 185.272C58.7326 184.811 58.7613 184.364 58.7092 183.931C58.6571 183.498 58.5075 183.122 58.2604 182.804C58.0133 182.486 57.6532 182.271 57.1801 182.158C56.707 182.046 56.2886 182.076 55.9248 182.249C55.5611 182.422 55.2585 182.69 55.0172 183.054C54.7759 183.417 54.6004 183.829 54.4909 184.29C54.3813 184.752 54.353 185.197 54.4058 185.627C54.4586 186.057 54.609 186.43 54.8568 186.745C55.1046 187.06 55.465 187.274 55.9381 187.386ZM60.6339 189.356L62.8191 180.157L63.8791 180.409L63.0724 183.805L63.1623 183.826C63.2686 183.725 63.4127 183.598 63.5945 183.445C63.78 183.29 64.0205 183.169 64.3159 183.085C64.6149 182.998 64.989 183.007 65.4382 183.114C66.0191 183.252 66.4966 183.519 66.8708 183.915C67.2449 184.31 67.493 184.804 67.6149 185.396C67.7368 185.988 67.7117 186.647 67.5395 187.371C67.366 188.102 67.0913 188.706 66.7154 189.183C66.3403 189.656 65.8978 189.988 65.3879 190.177C64.8787 190.363 64.3367 190.387 63.7618 190.251C63.3186 190.145 62.9812 189.988 62.7496 189.778C62.5186 189.565 62.3537 189.347 62.2548 189.124C62.1566 188.898 62.0835 188.713 62.0355 188.569L61.9098 188.539L61.658 189.599L60.6339 189.356ZM62.4954 186.154C62.3716 186.675 62.3388 187.153 62.3969 187.587C62.4557 188.019 62.6051 188.382 62.8452 188.676C63.086 188.967 63.419 189.163 63.8442 189.264C64.2874 189.37 64.6849 189.341 65.0369 189.178C65.3925 189.012 65.6925 188.748 65.9368 188.385C66.1848 188.021 66.3672 187.593 66.4838 187.101C66.599 186.616 66.628 186.161 66.5708 185.737C66.5173 185.309 66.3678 184.947 66.1224 184.648C65.8808 184.347 65.5354 184.143 65.0862 184.036C64.655 183.934 64.2668 183.957 63.9214 184.106C63.5767 184.252 63.2833 184.502 63.0411 184.855C62.7996 185.206 62.6177 185.639 62.4954 186.154ZM68.3458 191.188L69.9847 184.289L71.0447 184.541L69.4058 191.44L68.3458 191.188ZM70.7968 183.267C70.5902 183.218 70.4287 183.105 70.3125 182.929C70.1992 182.754 70.166 182.567 70.213 182.369C70.2599 182.172 70.3734 182.02 70.5536 181.914C70.7368 181.809 70.9316 181.781 71.1382 181.83C71.3448 181.879 71.5048 181.991 71.6181 182.167C71.7344 182.343 71.769 182.53 71.7221 182.728C71.6751 182.925 71.5601 183.077 71.3769 183.182C71.1968 183.288 71.0034 183.316 70.7968 183.267ZM74.5924 182.954L72.4072 192.153L71.3472 191.901L73.5324 182.702L74.5924 182.954ZM77.207 193.445C76.5423 193.287 76.0037 193.004 75.5913 192.596C75.1827 192.186 74.911 191.685 74.7764 191.093C74.6455 190.499 74.664 189.848 74.8319 189.142C74.9998 188.435 75.2765 187.843 75.662 187.365C76.0513 186.885 76.5139 186.549 77.0499 186.356C77.5895 186.162 78.1708 186.139 78.7936 186.287C79.1529 186.372 79.4935 186.516 79.8154 186.719C80.1373 186.922 80.4099 187.193 80.6334 187.53C80.8575 187.865 81.0027 188.273 81.0688 188.754C81.1349 189.234 81.0915 189.797 80.9385 190.44L80.8318 190.89L75.5139 189.626L75.7316 188.71L79.9715 189.717C80.064 189.328 80.0687 188.962 79.9855 188.62C79.9054 188.278 79.744 187.985 79.5016 187.741C79.2621 187.497 78.9507 187.33 78.5674 187.239C78.1452 187.139 77.755 187.157 77.3968 187.293C77.0423 187.427 76.7432 187.641 76.4996 187.934C76.2559 188.227 76.0889 188.564 75.9986 188.944L75.8535 189.555C75.7297 190.076 75.7146 190.539 75.8082 190.944C75.9055 191.347 76.0934 191.681 76.372 191.946C76.6513 192.209 77.005 192.391 77.4332 192.493C77.7117 192.559 77.9725 192.58 78.2155 192.555C78.4623 192.528 78.6869 192.455 78.8893 192.336C79.0924 192.213 79.2673 192.043 79.414 191.824L80.3698 192.355C80.1795 192.677 79.9258 192.939 79.6087 193.142C79.2923 193.342 78.9295 193.471 78.5203 193.529C78.1119 193.584 77.6741 193.556 77.207 193.445ZM87.8688 190.17L86.8525 190.213C86.8304 190.04 86.7787 189.865 86.6975 189.687C86.6199 189.508 86.4941 189.345 86.32 189.199C86.1458 189.053 85.9045 188.944 85.5961 188.871C85.1739 188.77 84.799 188.784 84.4713 188.912C84.1473 189.037 83.9501 189.248 83.8796 189.545C83.817 189.808 83.8634 190.039 84.0188 190.237C84.1741 190.436 84.4433 190.634 84.8264 190.833L85.7907 191.327C86.372 191.624 86.7772 191.962 87.0063 192.342C87.2362 192.719 87.2939 193.149 87.1793 193.631C87.0855 194.026 86.8877 194.353 86.5862 194.61C86.2876 194.868 85.9149 195.039 85.468 195.123C85.0211 195.206 84.5296 195.184 83.9936 195.057C83.29 194.89 82.7439 194.599 82.3553 194.184C81.9667 193.769 81.7808 193.253 81.7974 192.637L82.8633 192.625C82.8709 193.019 82.9859 193.34 83.2083 193.589C83.4337 193.839 83.7634 194.015 84.1976 194.119C84.6917 194.236 85.1088 194.224 85.4491 194.084C85.793 193.941 86.0002 193.721 86.0706 193.425C86.1275 193.185 86.0913 192.965 85.9621 192.763C85.8335 192.559 85.6052 192.375 85.277 192.211L84.1912 191.669C83.595 191.369 83.186 191.026 82.9643 190.642C82.7462 190.255 82.6937 189.823 82.8068 189.347C82.8993 188.958 83.0904 188.639 83.3801 188.392C83.6728 188.145 84.0296 187.981 84.4504 187.901C84.8743 187.821 85.3287 187.839 85.8138 187.954C86.4965 188.117 86.9969 188.394 87.315 188.786C87.6362 189.178 87.8207 189.64 87.8688 190.17Z" fill="white"/>
<rect x="242.498" y="210.995" width="86" height="25" rx="4.5" transform="rotate(15.5178 242.498 210.995)" fill="#1DAB6E"/>
<rect x="242.498" y="210.995" width="86" height="25" rx="4.5" transform="rotate(15.5178 242.498 210.995)" stroke="black"/>
<path d="M257.707 233.38L260.237 224.27L261.34 224.577L259.082 232.708L263.317 233.884L263.045 234.862L257.707 233.38ZM266.577 236.016C266.144 235.895 265.774 235.705 265.466 235.444C265.159 235.18 264.945 234.863 264.824 234.494C264.704 234.122 264.706 233.714 264.829 233.269C264.938 232.877 265.103 232.581 265.325 232.381C265.547 232.178 265.807 232.042 266.104 231.975C266.4 231.907 266.714 231.882 267.044 231.9C267.378 231.916 267.71 231.948 268.039 231.994C268.468 232.056 268.816 232.11 269.082 232.155C269.351 232.197 269.554 232.201 269.692 232.166C269.832 232.131 269.926 232.03 269.973 231.861L269.983 231.825C270.105 231.386 270.079 231.012 269.907 230.702C269.737 230.393 269.41 230.171 268.927 230.037C268.426 229.898 268.002 229.899 267.657 230.039C267.311 230.179 267.046 230.358 266.861 230.575L265.964 229.943C266.257 229.577 266.584 229.319 266.944 229.17C267.309 229.019 267.681 228.947 268.059 228.953C268.441 228.957 268.804 229.006 269.148 229.102C269.368 229.163 269.612 229.26 269.882 229.392C270.156 229.522 270.404 229.705 270.626 229.939C270.852 230.174 271.008 230.478 271.097 230.85C271.185 231.223 271.154 231.681 271.003 232.223L269.753 236.725L268.703 236.433L268.96 235.508L268.907 235.493C268.794 235.622 268.632 235.748 268.419 235.871C268.206 235.993 267.945 236.076 267.636 236.118C267.327 236.16 266.974 236.126 266.577 236.016ZM266.999 235.117C267.414 235.232 267.787 235.248 268.117 235.164C268.45 235.081 268.725 234.93 268.942 234.712C269.161 234.496 269.311 234.245 269.39 233.96L269.657 232.999C269.597 233.04 269.486 233.062 269.322 233.065C269.163 233.065 268.98 233.054 268.776 233.033C268.575 233.009 268.379 232.983 268.188 232.956C268.002 232.926 267.85 232.903 267.733 232.887C267.45 232.847 267.179 232.834 266.92 232.848C266.664 232.86 266.442 232.924 266.253 233.041C266.068 233.156 265.938 233.347 265.864 233.614C265.763 233.978 265.821 234.292 266.039 234.553C266.261 234.813 266.581 235.001 266.999 235.117ZM270.958 239.819L273.566 230.424L274.58 230.706L274.279 231.791L274.404 231.826C274.514 231.729 274.662 231.607 274.85 231.461C275.041 231.313 275.286 231.202 275.584 231.129C275.886 231.053 276.26 231.077 276.705 231.2C277.28 231.36 277.747 231.644 278.106 232.054C278.465 232.463 278.694 232.966 278.794 233.563C278.894 234.159 278.844 234.816 278.644 235.533C278.444 236.257 278.146 236.85 277.753 237.312C277.36 237.772 276.905 238.086 276.389 238.256C275.873 238.423 275.33 238.427 274.761 238.269C274.322 238.147 273.991 237.977 273.767 237.758C273.545 237.537 273.388 237.313 273.298 237.086C273.208 236.857 273.142 236.669 273.099 236.523L273.01 236.499L272.007 240.111L270.958 239.819ZM273.65 234.127C273.506 234.643 273.456 235.119 273.497 235.556C273.54 235.989 273.676 236.358 273.904 236.661C274.134 236.961 274.459 237.169 274.881 237.286C275.319 237.408 275.718 237.394 276.076 237.244C276.437 237.092 276.747 236.84 277.005 236.487C277.266 236.131 277.465 235.71 277.6 235.224C277.733 234.744 277.779 234.29 277.738 233.863C277.7 233.435 277.565 233.066 277.331 232.759C277.101 232.449 276.763 232.232 276.318 232.109C275.891 231.99 275.502 231.999 275.152 232.134C274.802 232.267 274.499 232.506 274.244 232.85C273.989 233.191 273.791 233.617 273.65 234.127ZM284.171 233.369L283.924 234.259L280.383 233.275L280.63 232.386L284.171 233.369ZM282.116 231.035L283.166 231.327L281.358 237.839C281.276 238.136 281.257 238.37 281.302 238.542C281.35 238.712 281.436 238.841 281.558 238.93C281.684 239.016 281.825 239.08 281.979 239.123C282.095 239.155 282.191 239.175 282.269 239.184C282.347 239.19 282.409 239.195 282.456 239.198L282.408 240.2C282.329 240.207 282.223 240.206 282.088 240.198C281.952 240.192 281.786 240.162 281.591 240.108C281.294 240.025 281.021 239.881 280.772 239.674C280.525 239.468 280.345 239.209 280.231 238.896C280.119 238.584 280.119 238.23 280.229 237.832L282.116 231.035ZM286.515 241.532C285.899 241.361 285.398 241.064 285.014 240.641C284.633 240.219 284.385 239.708 284.271 239.108C284.159 238.508 284.202 237.856 284.398 237.15C284.595 236.438 284.897 235.853 285.302 235.394C285.711 234.935 286.187 234.623 286.731 234.458C287.278 234.294 287.86 234.297 288.477 234.469C289.094 234.64 289.593 234.937 289.974 235.359C290.358 235.782 290.605 236.294 290.716 236.897C290.829 237.5 290.787 238.157 290.59 238.869C290.394 239.575 290.092 240.155 289.684 240.611C289.28 241.067 288.804 241.377 288.257 241.542C287.713 241.707 287.132 241.704 286.515 241.532ZM286.777 240.589C287.246 240.72 287.665 240.706 288.034 240.55C288.403 240.394 288.715 240.14 288.969 239.789C289.223 239.438 289.413 239.034 289.54 238.578C289.667 238.121 289.712 237.675 289.676 237.24C289.641 236.806 289.505 236.425 289.27 236.098C289.035 235.77 288.683 235.542 288.215 235.412C287.746 235.282 287.327 235.296 286.957 235.455C286.587 235.615 286.275 235.871 286.02 236.225C285.765 236.579 285.574 236.985 285.447 237.441C285.321 237.898 285.276 238.342 285.312 238.774C285.349 239.206 285.485 239.584 285.721 239.908C285.957 240.232 286.309 240.459 286.777 240.589ZM290.542 245.257L293.15 235.862L294.165 236.144L293.863 237.229L293.988 237.264C294.098 237.167 294.247 237.045 294.434 236.899C294.625 236.751 294.87 236.64 295.168 236.566C295.471 236.49 295.844 236.514 296.289 236.638C296.864 236.798 297.331 237.082 297.69 237.492C298.049 237.901 298.279 238.404 298.378 239C298.478 239.596 298.428 240.253 298.229 240.971C298.028 241.695 297.731 242.288 297.337 242.75C296.944 243.21 296.49 243.524 295.973 243.694C295.457 243.86 294.915 243.865 294.345 243.707C293.906 243.585 293.575 243.414 293.352 243.196C293.129 242.974 292.972 242.75 292.882 242.524C292.792 242.295 292.726 242.107 292.684 241.961L292.595 241.936L291.592 245.548L290.542 245.257ZM293.234 239.565C293.091 240.081 293.04 240.557 293.082 240.994C293.124 241.427 293.26 241.795 293.489 242.098C293.718 242.399 294.044 242.607 294.465 242.724C294.904 242.846 295.302 242.832 295.66 242.682C296.022 242.53 296.331 242.278 296.589 241.924C296.851 241.569 297.049 241.148 297.184 240.662C297.317 240.181 297.363 239.728 297.322 239.301C297.285 238.872 297.149 238.504 296.915 238.196C296.685 237.886 296.347 237.67 295.903 237.546C295.475 237.428 295.087 237.436 294.736 237.572C294.386 237.705 294.083 237.943 293.828 238.288C293.574 238.629 293.376 239.055 293.234 239.565ZM305.198 240.856L304.181 240.861C304.166 240.687 304.12 240.51 304.046 240.33C303.975 240.147 303.856 239.98 303.687 239.828C303.519 239.675 303.282 239.557 302.976 239.472C302.558 239.356 302.183 239.356 301.851 239.471C301.522 239.584 301.317 239.787 301.236 240.081C301.163 240.342 301.201 240.574 301.349 240.778C301.496 240.982 301.758 241.191 302.133 241.404L303.078 241.934C303.648 242.252 304.04 242.605 304.255 242.994C304.47 243.38 304.512 243.811 304.379 244.289C304.271 244.68 304.061 244.999 303.75 245.245C303.442 245.491 303.063 245.648 302.613 245.715C302.163 245.781 301.673 245.741 301.142 245.594C300.445 245.4 299.911 245.089 299.538 244.66C299.165 244.23 298.999 243.708 299.038 243.093L300.104 243.121C300.097 243.515 300.2 243.84 300.413 244.098C300.628 244.355 300.951 244.544 301.381 244.664C301.871 244.799 302.288 244.803 302.633 244.676C302.982 244.546 303.198 244.334 303.279 244.041C303.345 243.803 303.317 243.582 303.195 243.375C303.075 243.166 302.853 242.974 302.532 242.798L301.467 242.215C300.882 241.893 300.487 241.536 300.28 241.143C300.076 240.748 300.04 240.314 300.171 239.843C300.278 239.457 300.481 239.146 300.78 238.91C301.081 238.674 301.444 238.524 301.868 238.46C302.294 238.396 302.748 238.431 303.228 238.565C303.904 238.752 304.394 239.048 304.697 239.452C305.003 239.856 305.17 240.324 305.198 240.856Z" fill="white"/>
<rect x="16.0867" y="203.955" width="86" height="25" rx="4.5" transform="rotate(13.3634 16.0867 203.955)" fill="#1DAB6E"/>
<rect x="16.0867" y="203.955" width="86" height="25" rx="4.5" transform="rotate(13.3634 16.0867 203.955)" stroke="black"/>
<path d="M33.5752 217.423L33.8099 216.435L40.7088 218.074L40.4741 219.062L37.5816 218.375L35.6311 226.585L34.5173 226.32L36.4677 218.11L33.5752 217.423ZM41.1521 228.067C40.7149 227.964 40.3377 227.787 40.0205 227.538C39.704 227.285 39.4783 226.977 39.3434 226.613C39.2092 226.246 39.1954 225.837 39.3021 225.388C39.396 224.993 39.55 224.691 39.764 224.483C39.9788 224.271 40.2331 224.126 40.5271 224.047C40.821 223.968 41.1333 223.932 41.4641 223.937C41.7986 223.941 42.131 223.96 42.4613 223.994C42.8934 224.04 43.2428 224.08 43.5097 224.115C43.7803 224.148 43.9837 224.144 44.1198 224.103C44.259 224.064 44.3488 223.958 44.3893 223.788L44.3979 223.752C44.5032 223.309 44.4637 222.936 44.2795 222.632C44.0983 222.33 43.7636 222.121 43.2755 222.005C42.7695 221.885 42.3464 221.901 42.0063 222.054C41.6663 222.208 41.4079 222.396 41.2314 222.62L40.3107 222.022C40.5899 221.645 40.907 221.376 41.2619 221.213C41.6205 221.049 41.989 220.962 42.3674 220.954C42.7495 220.944 43.1142 220.98 43.4615 221.062C43.6831 221.115 43.9312 221.202 44.2059 221.324C44.4842 221.444 44.739 221.617 44.97 221.843C45.2041 222.069 45.3722 222.367 45.4743 222.736C45.5765 223.105 45.5624 223.564 45.4323 224.111L44.3525 228.657L43.2925 228.405L43.5144 227.471L43.4605 227.458C43.3531 227.591 43.1953 227.722 42.987 227.853C42.7788 227.984 42.5212 228.076 42.2143 228.13C41.9074 228.184 41.5533 228.163 41.1521 228.067ZM41.54 227.154C41.9592 227.253 42.3321 227.255 42.6586 227.158C42.9882 227.063 43.2573 226.902 43.4659 226.676C43.6775 226.451 43.8174 226.195 43.8857 225.908L44.1162 224.938C44.0585 224.981 43.9479 225.007 43.7846 225.015C43.6249 225.022 43.4423 225.018 43.2369 225.004C43.0351 224.988 42.8386 224.969 42.6472 224.949C42.4596 224.927 42.3071 224.91 42.1898 224.898C41.9058 224.868 41.6344 224.865 41.3756 224.889C41.1206 224.911 40.9009 224.984 40.7164 225.107C40.5357 225.229 40.4133 225.425 40.3493 225.694C40.2618 226.062 40.3319 226.373 40.5596 226.627C40.791 226.878 41.1178 227.053 41.54 227.154ZM46.4309 229.151L48.6161 219.952L49.6761 220.204L48.8694 223.599L48.9593 223.621C49.0656 223.519 49.2097 223.392 49.3915 223.239C49.577 223.084 49.8175 222.964 50.1129 222.879C50.4119 222.792 50.786 222.802 51.2352 222.909C51.8161 223.047 52.2936 223.314 52.6678 223.709C53.0419 224.105 53.29 224.599 53.4119 225.191C53.5338 225.783 53.5087 226.441 53.3365 227.166C53.163 227.897 52.8883 228.5 52.5124 228.977C52.1373 229.451 51.6947 229.783 51.1849 229.972C50.6757 230.157 50.1337 230.182 49.5588 230.045C49.1156 229.94 48.7782 229.783 48.5466 229.573C48.3156 229.36 48.1507 229.142 48.0518 228.919C47.9536 228.693 47.8805 228.508 47.8325 228.364L47.7068 228.334L47.455 229.394L46.4309 229.151ZM48.2924 225.949C48.1686 226.47 48.1358 226.947 48.1939 227.382C48.2527 227.814 48.4021 228.176 48.6422 228.471C48.883 228.762 49.216 228.958 49.6412 229.059C50.0844 229.164 50.4819 229.135 50.8339 228.972C51.1895 228.807 51.4895 228.543 51.7338 228.18C51.9818 227.815 52.1642 227.387 52.2808 226.896C52.396 226.411 52.425 225.956 52.3678 225.531C52.3143 225.104 52.1648 224.741 51.9194 224.443C51.6778 224.142 51.3324 223.938 50.8832 223.831C50.452 223.729 50.0638 223.752 49.7184 223.901C49.3737 224.047 49.0803 224.296 48.8381 224.65C48.5966 225.001 48.4147 225.434 48.2924 225.949ZM57.388 222.036L55.2028 231.234L54.1428 230.983L56.328 221.784L57.388 222.036ZM60.0026 232.527C59.3378 232.369 58.7993 232.086 58.3869 231.678C57.9782 231.267 57.7066 230.766 57.572 230.174C57.4411 229.58 57.4596 228.93 57.6275 228.223C57.7953 227.517 58.0721 226.924 58.4576 226.447C58.8469 225.966 59.3095 225.63 59.8454 225.438C60.3851 225.244 60.9663 225.22 61.5892 225.368C61.9485 225.454 62.2891 225.598 62.611 225.801C62.9328 226.004 63.2055 226.274 63.4289 226.612C63.6531 226.947 63.7982 227.355 63.8643 227.835C63.9304 228.316 63.887 228.878 63.7341 229.522L63.6274 229.971L58.3095 228.708L58.5271 227.792L62.7671 228.799C62.8596 228.41 62.8642 228.044 62.7811 227.701C62.7009 227.36 62.5396 227.067 62.2971 226.822C62.0576 226.579 61.7462 226.412 61.363 226.321C60.9408 226.22 60.5506 226.238 60.1923 226.375C59.8378 226.509 59.5388 226.722 59.2951 227.016C59.0515 227.309 58.8845 227.646 58.7942 228.026L58.649 228.637C58.5253 229.158 58.5102 229.621 58.6038 230.026C58.7011 230.428 58.889 230.763 59.1676 231.028C59.4469 231.29 59.8006 231.473 60.2288 231.574C60.5073 231.64 60.768 231.661 61.0111 231.637C61.2579 231.61 61.4824 231.537 61.6848 231.417C61.8879 231.295 62.0629 231.124 62.2096 230.906L63.1654 231.437C62.975 231.759 62.7213 232.021 62.4042 232.224C62.0878 232.424 61.725 232.553 61.3159 232.611C60.9075 232.666 60.4697 232.637 60.0026 232.527ZM69.1449 227.258L68.9316 228.157L65.3563 227.307L65.5697 226.409L69.1449 227.258ZM67.0044 225.004L68.0644 225.255L66.5023 231.831C66.4312 232.13 66.4213 232.365 66.4725 232.536C66.5275 232.704 66.6178 232.83 66.7435 232.913C66.8728 232.994 67.0153 233.054 67.171 233.091C67.2878 233.118 67.3851 233.135 67.4628 233.141C67.5412 233.144 67.6039 233.146 67.651 233.148L67.6404 234.151C67.5621 234.161 67.4554 234.164 67.3202 234.16C67.1843 234.16 67.0176 234.136 66.82 234.089C66.5205 234.018 66.2424 233.884 65.9855 233.687C65.7317 233.49 65.5417 233.238 65.4156 232.93C65.2926 232.622 65.2787 232.268 65.374 231.867L67.0044 225.004ZM75.1356 230.314L74.1194 230.357C74.0972 230.184 74.0455 230.009 73.9643 229.831C73.8868 229.652 73.761 229.489 73.5868 229.343C73.4126 229.197 73.1714 229.088 72.8629 229.015C72.4407 228.914 72.0658 228.928 71.7381 229.056C71.4141 229.181 71.2169 229.392 71.1465 229.689C71.0839 229.952 71.1303 230.183 71.2856 230.381C71.441 230.579 71.7102 230.778 72.0932 230.976L73.0575 231.471C73.6388 231.767 74.044 232.106 74.2732 232.486C74.503 232.863 74.5607 233.293 74.4462 233.775C74.3523 234.17 74.1546 234.497 73.853 234.754C73.5545 235.012 73.1817 235.183 72.7348 235.266C72.2879 235.35 71.7965 235.328 71.2605 235.201C70.5568 235.034 70.0107 234.743 69.6221 234.328C69.2336 233.913 69.0476 233.397 69.0642 232.781L70.1301 232.769C70.1377 233.163 70.2527 233.484 70.4751 233.733C70.7005 233.983 71.0303 234.159 71.4644 234.262C71.9585 234.38 72.3757 234.368 72.7159 234.228C73.0598 234.085 73.267 233.865 73.3375 233.569C73.3944 233.329 73.3582 233.108 73.2289 232.907C73.1003 232.702 72.872 232.519 72.5439 232.355L71.4581 231.813C70.8618 231.513 70.4528 231.17 70.2311 230.786C70.013 230.398 69.9606 229.967 70.0737 229.491C70.1661 229.101 70.3572 228.783 70.647 228.536C70.9397 228.289 71.2964 228.125 71.7173 228.045C72.1411 227.965 72.5955 227.983 73.0806 228.098C73.7633 228.26 74.2637 228.538 74.5819 228.929C74.903 229.322 75.0876 229.783 75.1356 230.314Z" fill="white"/>
<rect x="231.26" y="251.464" width="86" height="25" rx="4.5" transform="rotate(15.5178 231.26 251.464)" fill="#1DAB6E"/>
<rect x="231.26" y="251.464" width="86" height="25" rx="4.5" transform="rotate(15.5178 231.26 251.464)" stroke="black"/>
<path d="M239.864 264.75C239.925 264.356 239.824 264.009 239.561 263.709C239.299 263.409 238.934 263.195 238.467 263.065C238.126 262.97 237.812 262.943 237.525 262.982C237.241 263.022 237.001 263.119 236.804 263.272C236.61 263.426 236.479 263.626 236.411 263.872C236.353 264.078 236.353 264.269 236.41 264.444C236.47 264.617 236.564 264.774 236.693 264.915C236.822 265.054 236.963 265.178 237.116 265.288C237.27 265.396 237.413 265.489 237.546 265.566L238.27 265.994C238.456 266.102 238.659 266.237 238.879 266.398C239.102 266.56 239.304 266.753 239.485 266.976C239.67 267.198 239.801 267.453 239.881 267.743C239.96 268.032 239.949 268.357 239.849 268.719C239.733 269.135 239.519 269.481 239.208 269.757C238.898 270.033 238.508 270.213 238.037 270.295C237.567 270.379 237.037 270.338 236.445 270.174C235.893 270.02 235.439 269.799 235.085 269.508C234.733 269.219 234.486 268.882 234.343 268.5C234.203 268.118 234.177 267.712 234.264 267.282L235.227 267.549C235.172 267.847 235.203 268.115 235.32 268.353C235.441 268.59 235.621 268.791 235.858 268.957C236.099 269.121 236.373 269.246 236.679 269.331C237.035 269.43 237.371 269.461 237.687 269.424C238.003 269.385 238.273 269.284 238.496 269.122C238.72 268.957 238.871 268.734 238.949 268.453C239.021 268.197 239.007 267.969 238.908 267.769C238.81 267.568 238.658 267.386 238.453 267.22C238.247 267.055 238.019 266.897 237.769 266.747L236.896 266.213C236.342 265.872 235.934 265.493 235.672 265.074C235.409 264.655 235.35 264.186 235.495 263.667C235.615 263.235 235.836 262.891 236.158 262.635C236.484 262.377 236.87 262.213 237.316 262.145C237.765 262.075 238.235 262.109 238.727 262.245C239.224 262.383 239.641 262.595 239.978 262.88C240.315 263.163 240.555 263.489 240.696 263.858C240.839 264.228 240.863 264.609 240.767 265.001L239.864 264.75ZM240.682 271.204L242.287 265.423L243.145 265.661L242.894 266.565L242.97 266.585C243.176 266.31 243.437 266.125 243.753 266.029C244.069 265.93 244.416 265.933 244.792 266.037C245.174 266.143 245.467 266.318 245.672 266.562C245.881 266.803 246.014 267.098 246.071 267.447L246.131 267.463C246.362 267.206 246.65 267.03 246.995 266.937C247.341 266.841 247.72 266.85 248.134 266.965C248.651 267.109 249.029 267.388 249.268 267.803C249.508 268.216 249.533 268.762 249.344 269.442L248.27 273.311L247.381 273.064L248.456 269.195C248.574 268.769 248.542 268.431 248.36 268.183C248.177 267.935 247.928 267.768 247.612 267.68C247.205 267.567 246.856 267.602 246.565 267.786C246.274 267.968 246.076 268.245 245.973 268.619L244.927 272.383L244.024 272.132L245.124 268.173C245.215 267.844 245.182 267.55 245.024 267.29C244.867 267.027 244.621 266.849 244.285 266.756C244.054 266.692 243.821 266.693 243.586 266.761C243.354 266.829 243.146 266.955 242.962 267.139C242.782 267.321 242.652 267.554 242.573 267.838L241.57 271.451L240.682 271.204ZM251.558 274.37C251.191 274.268 250.878 274.107 250.618 273.886C250.358 273.663 250.177 273.395 250.074 273.082C249.973 272.768 249.974 272.422 250.079 272.046C250.17 271.715 250.31 271.464 250.498 271.295C250.686 271.123 250.906 271.008 251.157 270.951C251.408 270.893 251.673 270.872 251.953 270.888C252.235 270.901 252.516 270.928 252.794 270.967C253.158 271.02 253.452 271.065 253.677 271.103C253.905 271.139 254.077 271.142 254.193 271.113C254.312 271.083 254.391 270.997 254.431 270.854L254.439 270.824C254.542 270.453 254.521 270.136 254.375 269.874C254.231 269.612 253.955 269.425 253.546 269.311C253.122 269.193 252.764 269.194 252.471 269.313C252.179 269.432 251.954 269.583 251.798 269.766L251.038 269.231C251.286 268.922 251.563 268.704 251.868 268.578C252.177 268.45 252.491 268.389 252.811 268.394C253.135 268.397 253.442 268.439 253.733 268.52C253.919 268.572 254.126 268.653 254.354 268.765C254.586 268.876 254.796 269.03 254.984 269.228C255.175 269.427 255.307 269.684 255.382 269.999C255.456 270.315 255.43 270.702 255.303 271.161L254.245 274.97L253.357 274.723L253.574 273.941L253.529 273.928C253.434 274.037 253.296 274.143 253.116 274.247C252.936 274.351 252.715 274.421 252.454 274.457C252.192 274.492 251.894 274.463 251.558 274.37ZM251.915 273.61C252.266 273.707 252.581 273.72 252.86 273.649C253.142 273.579 253.375 273.451 253.558 273.267C253.744 273.084 253.871 272.872 253.938 272.631L254.163 271.818C254.113 271.853 254.019 271.871 253.881 271.873C253.745 271.873 253.591 271.864 253.418 271.846C253.248 271.826 253.082 271.804 252.921 271.781C252.763 271.756 252.635 271.737 252.536 271.723C252.297 271.689 252.067 271.678 251.848 271.69C251.631 271.7 251.443 271.754 251.283 271.853C251.127 271.95 251.017 272.112 250.954 272.338C250.869 272.646 250.918 272.911 251.102 273.133C251.29 273.352 251.561 273.511 251.915 273.61ZM255.866 275.42L257.471 269.639L258.33 269.877L258.087 270.751L258.147 270.767C258.332 270.51 258.587 270.331 258.913 270.23C259.238 270.128 259.574 270.126 259.92 270.222C259.986 270.24 260.067 270.264 260.164 270.293C260.261 270.323 260.334 270.347 260.383 270.366L260.132 271.27C260.104 271.254 260.038 271.223 259.935 271.178C259.834 271.131 259.725 271.092 259.607 271.059C259.326 270.981 259.059 270.97 258.805 271.027C258.555 271.082 258.337 271.194 258.152 271.364C257.97 271.533 257.843 271.748 257.77 272.008L256.754 275.667L255.866 275.42ZM264.292 271.533L264.082 272.285L261.086 271.454L261.295 270.701L264.292 271.533ZM262.553 269.558L263.442 269.805L261.912 275.315C261.842 275.566 261.826 275.764 261.864 275.91C261.905 276.054 261.977 276.163 262.081 276.238C262.188 276.311 262.306 276.365 262.437 276.401C262.535 276.429 262.616 276.446 262.682 276.453C262.748 276.458 262.801 276.462 262.841 276.465L262.8 277.313C262.734 277.319 262.643 277.318 262.529 277.311C262.414 277.306 262.274 277.281 262.108 277.235C261.857 277.165 261.626 277.043 261.416 276.868C261.207 276.694 261.055 276.474 260.958 276.21C260.864 275.946 260.863 275.646 260.956 275.309L262.553 269.558ZM265.332 278.049L265.176 271.778L266.109 272.037L266.13 276.811L266.19 276.827L268.654 272.744L269.602 273.007L269.597 277.757L269.657 277.774L272.132 273.71L273.065 273.969L269.698 279.261L268.825 279.018L268.794 274.226L268.703 274.201L266.205 278.291L265.332 278.049ZM274.298 280.684C273.931 280.582 273.618 280.421 273.358 280.2C273.098 279.977 272.917 279.709 272.815 279.397C272.713 279.082 272.714 278.736 272.819 278.36C272.911 278.029 273.051 277.778 273.238 277.609C273.426 277.437 273.646 277.322 273.897 277.265C274.148 277.207 274.414 277.186 274.693 277.202C274.976 277.215 275.256 277.242 275.534 277.281C275.898 277.334 276.192 277.379 276.417 277.417C276.645 277.453 276.817 277.456 276.933 277.427C277.052 277.397 277.132 277.311 277.171 277.168L277.18 277.138C277.283 276.767 277.261 276.45 277.115 276.188C276.971 275.926 276.695 275.739 276.286 275.625C275.862 275.508 275.504 275.508 275.211 275.627C274.919 275.746 274.695 275.897 274.538 276.08L273.779 275.545C274.027 275.236 274.303 275.018 274.609 274.892C274.917 274.764 275.232 274.703 275.552 274.708C275.875 274.711 276.182 274.753 276.473 274.834C276.659 274.886 276.866 274.967 277.094 275.079C277.326 275.19 277.536 275.344 277.724 275.542C277.915 275.741 278.048 275.998 278.122 276.313C278.197 276.629 278.17 277.016 278.043 277.475L276.985 281.284L276.097 281.038L276.314 280.255L276.269 280.242C276.174 280.351 276.036 280.457 275.856 280.561C275.676 280.665 275.455 280.735 275.194 280.771C274.933 280.806 274.634 280.777 274.298 280.684ZM274.655 279.924C275.006 280.021 275.321 280.034 275.601 279.963C275.882 279.893 276.115 279.766 276.299 279.581C276.485 279.398 276.611 279.186 276.678 278.945L276.904 278.132C276.854 278.167 276.759 278.185 276.621 278.187C276.486 278.187 276.331 278.178 276.158 278.16C275.988 278.14 275.822 278.118 275.661 278.095C275.503 278.07 275.375 278.051 275.276 278.037C275.037 278.003 274.807 277.992 274.588 278.004C274.372 278.014 274.183 278.068 274.024 278.167C273.867 278.264 273.757 278.426 273.695 278.652C273.609 278.96 273.658 279.225 273.843 279.447C274.03 279.666 274.301 279.825 274.655 279.924ZM282.726 276.651L282.517 277.404L279.521 276.572L279.73 275.819L282.726 276.651ZM280.988 274.677L281.876 274.923L280.346 280.434C280.276 280.685 280.26 280.883 280.298 281.028C280.34 281.172 280.412 281.282 280.515 281.356C280.622 281.429 280.741 281.484 280.871 281.52C280.969 281.547 281.051 281.564 281.116 281.572C281.183 281.577 281.236 281.581 281.275 281.584L281.234 282.432C281.168 282.437 281.078 282.437 280.963 282.429C280.849 282.424 280.708 282.399 280.543 282.353C280.292 282.283 280.061 282.161 279.85 281.986C279.642 281.812 279.489 281.593 279.392 281.328C279.298 281.064 279.297 280.764 279.391 280.428L280.988 274.677ZM284.71 283.559C284.168 283.408 283.737 283.151 283.416 282.786C283.096 282.421 282.893 281.985 282.807 281.478C282.721 280.97 282.758 280.428 282.918 279.85C283.081 279.263 283.333 278.775 283.673 278.386C284.017 277.995 284.419 277.727 284.878 277.581C285.34 277.434 285.833 277.433 286.354 277.578C286.761 277.69 287.106 277.867 287.391 278.109C287.675 278.35 287.884 278.635 288.017 278.964C288.15 279.292 288.191 279.644 288.141 280.02L287.253 279.773C287.258 279.491 287.173 279.216 286.996 278.948C286.822 278.678 286.539 278.488 286.148 278.38C285.802 278.284 285.473 278.29 285.162 278.398C284.854 278.504 284.582 278.7 284.346 278.986C284.113 279.27 283.936 279.63 283.815 280.067C283.691 280.514 283.653 280.922 283.701 281.292C283.753 281.663 283.882 281.976 284.089 282.231C284.3 282.487 284.58 282.663 284.932 282.761C285.162 282.825 285.383 282.843 285.594 282.815C285.804 282.787 285.995 282.716 286.168 282.601C286.34 282.487 286.483 282.332 286.597 282.137L287.485 282.383C287.34 282.711 287.13 282.984 286.856 283.202C286.585 283.419 286.266 283.562 285.897 283.633C285.532 283.702 285.137 283.677 284.71 283.559ZM290.169 281.199L289.204 284.677L288.315 284.43L290.456 276.722L291.344 276.968L290.558 279.799L290.633 279.82C290.852 279.559 291.121 279.378 291.441 279.278C291.764 279.175 292.152 279.187 292.606 279.313C293 279.423 293.323 279.598 293.575 279.838C293.828 280.076 293.991 280.379 294.065 280.748C294.141 281.115 294.11 281.547 293.972 282.044L292.952 285.718L292.064 285.471L293.067 281.858C293.195 281.399 293.174 281.01 293.006 280.693C292.84 280.374 292.548 280.157 292.129 280.04C291.838 279.96 291.56 279.949 291.295 280.007C291.032 280.067 290.802 280.196 290.603 280.395C290.407 280.595 290.263 280.863 290.169 281.199ZM296.968 286.962C296.411 286.808 295.964 286.551 295.629 286.193C295.296 285.833 295.083 285.401 294.988 284.896C294.896 284.39 294.932 283.84 295.097 283.248C295.261 282.656 295.514 282.164 295.855 281.772C296.199 281.379 296.601 281.109 297.061 280.964C297.523 280.816 298.015 280.815 298.537 280.96C298.838 281.044 299.122 281.177 299.387 281.358C299.653 281.54 299.875 281.778 300.053 282.07C300.232 282.361 300.342 282.71 300.382 283.119C300.423 283.527 300.368 284.001 300.219 284.541L300.114 284.917L295.658 283.68L295.871 282.912L299.424 283.898C299.515 283.572 299.53 283.263 299.471 282.971C299.414 282.679 299.287 282.426 299.09 282.212C298.895 281.999 298.637 281.847 298.316 281.758C297.962 281.66 297.631 281.663 297.324 281.767C297.02 281.869 296.76 282.04 296.545 282.28C296.33 282.52 296.178 282.8 296.089 283.118L295.947 283.63C295.826 284.067 295.798 284.458 295.865 284.803C295.934 285.147 296.082 285.435 296.31 285.669C296.537 285.9 296.831 286.065 297.189 286.164C297.423 286.229 297.643 286.255 297.849 286.242C298.058 286.227 298.251 286.173 298.426 286.078C298.601 285.981 298.755 285.842 298.886 285.662L299.677 286.142C299.506 286.408 299.283 286.621 299.008 286.783C298.734 286.942 298.424 287.039 298.076 287.075C297.729 287.109 297.359 287.071 296.968 286.962ZM306.087 284.532L305.227 284.537C305.213 284.39 305.175 284.24 305.112 284.087C305.052 283.933 304.951 283.791 304.808 283.662C304.666 283.534 304.465 283.433 304.207 283.362C303.853 283.263 303.536 283.263 303.254 283.361C302.976 283.456 302.803 283.628 302.734 283.877C302.673 284.098 302.705 284.294 302.83 284.467C302.955 284.639 303.176 284.816 303.494 284.996L304.293 285.445C304.775 285.714 305.107 286.013 305.289 286.342C305.471 286.668 305.506 287.033 305.394 287.437C305.302 287.768 305.125 288.038 304.861 288.246C304.601 288.455 304.28 288.587 303.9 288.644C303.519 288.7 303.104 288.666 302.655 288.541C302.065 288.378 301.613 288.114 301.298 287.751C300.982 287.388 300.841 286.946 300.875 286.426L301.777 286.449C301.771 286.782 301.858 287.058 302.038 287.275C302.22 287.494 302.494 287.653 302.857 287.754C303.271 287.869 303.625 287.873 303.917 287.765C304.212 287.655 304.394 287.476 304.463 287.227C304.519 287.027 304.495 286.839 304.392 286.664C304.29 286.487 304.103 286.325 303.831 286.176L302.93 285.683C302.435 285.41 302.1 285.108 301.925 284.775C301.753 284.441 301.722 284.074 301.833 283.675C301.924 283.349 302.096 283.086 302.348 282.886C302.604 282.687 302.911 282.56 303.269 282.505C303.63 282.451 304.014 282.481 304.42 282.594C304.992 282.753 305.406 283.003 305.663 283.344C305.922 283.686 306.063 284.082 306.087 284.532Z" fill="white"/>
<rect x="6.37969" y="244.818" width="86" height="25" rx="4.5" transform="rotate(13.3634 6.37969 244.818)" fill="#1DAB6E"/>
<rect x="6.37969" y="244.818" width="86" height="25" rx="4.5" transform="rotate(13.3634 6.37969 244.818)" stroke="black"/>
<path d="M30.2111 261.785C30.1842 261.459 30.1183 261.158 30.0135 260.88C29.9124 260.599 29.7714 260.348 29.5903 260.124C29.4123 259.902 29.1947 259.712 28.9376 259.556C28.6804 259.4 28.3857 259.283 28.0533 259.204C27.5084 259.074 26.9794 259.097 26.4664 259.273C25.9533 259.448 25.5 259.779 25.1063 260.264C24.7126 260.75 24.4212 261.391 24.232 262.187C24.0428 262.984 24.0163 263.687 24.1527 264.299C24.289 264.91 24.5513 265.41 24.9395 265.8C25.3278 266.19 25.8064 266.452 26.3753 266.587C26.9023 266.712 27.3931 266.71 27.8477 266.581C28.306 266.449 28.6965 266.204 29.0193 265.844C29.3457 265.482 29.5758 265.019 29.7095 264.456L30.0338 264.609L27.267 263.952L27.5018 262.964L31.0051 263.796L30.7704 264.784C30.5904 265.542 30.2723 266.162 29.8158 266.645C29.3624 267.129 28.8161 267.458 28.1769 267.632C27.5415 267.804 26.8584 267.803 26.1278 267.629C25.3133 267.436 24.6432 267.074 24.1174 266.544C23.5947 266.015 23.245 265.356 23.0685 264.568C22.8951 263.78 22.9236 262.901 23.154 261.931C23.3269 261.203 23.5796 260.572 23.9123 260.038C24.2486 259.501 24.6451 259.07 25.1019 258.745C25.5587 258.42 26.0586 258.207 26.6016 258.105C27.1446 258.003 27.711 258.022 28.3009 258.162C28.7859 258.277 29.2207 258.458 29.605 258.704C29.9931 258.948 30.3201 259.243 30.5862 259.587C30.856 259.93 31.0579 260.312 31.192 260.732C31.3268 261.15 31.3831 261.592 31.361 262.059L30.2111 261.785ZM33.6683 269.458C33.2311 269.354 32.854 269.178 32.5368 268.929C32.2203 268.676 31.9946 268.368 31.8596 268.004C31.7254 267.637 31.7117 267.228 31.8184 266.779C31.9123 266.384 32.0663 266.082 32.2803 265.874C32.495 265.662 32.7494 265.517 33.0433 265.438C33.3372 265.359 33.6496 265.323 33.9804 265.328C34.3148 265.332 34.6472 265.351 34.9776 265.385C35.4096 265.431 35.7591 265.471 36.026 265.506C36.2966 265.539 36.5 265.535 36.6361 265.494C36.7752 265.455 36.8651 265.349 36.9056 265.179L36.9141 265.143C37.0194 264.7 36.9799 264.327 36.7957 264.023C36.6145 263.721 36.2799 263.512 35.7918 263.396C35.2858 263.276 34.8627 263.292 34.5226 263.445C34.1825 263.599 33.9242 263.787 33.7477 264.011L32.8269 263.413C33.1062 263.036 33.4233 262.767 33.7782 262.604C34.1368 262.44 34.5053 262.353 34.8837 262.345C35.2657 262.334 35.6305 262.371 35.9778 262.453C36.1994 262.506 36.4475 262.593 36.7221 262.715C37.0005 262.835 37.2552 263.008 37.4863 263.234C37.7204 263.46 37.8885 263.758 37.9906 264.127C38.0927 264.496 38.0787 264.954 37.9485 265.502L36.8687 270.048L35.8087 269.796L36.0307 268.862L35.9768 268.849C35.8693 268.982 35.7115 269.113 35.5033 269.244C35.2951 269.375 35.0375 269.467 34.7306 269.521C34.4236 269.575 34.0696 269.554 33.6683 269.458ZM34.0562 268.545C34.4754 268.644 34.8483 268.646 35.1749 268.549C35.5045 268.454 35.7735 268.293 35.9821 268.067C36.1937 267.842 36.3337 267.586 36.402 267.299L36.6325 266.329C36.5747 266.372 36.4642 266.398 36.3008 266.406C36.1411 266.413 35.9586 266.409 35.7531 266.395C35.5514 266.379 35.3548 266.36 35.1635 266.34C34.9759 266.318 34.8234 266.301 34.706 266.288C34.422 266.259 34.1506 266.256 33.8919 266.28C33.6368 266.302 33.4171 266.375 33.2327 266.498C33.052 266.62 32.9296 266.815 32.8656 267.085C32.7781 267.453 32.8482 267.764 33.0758 268.017C33.3072 268.269 33.634 268.444 34.0562 268.545ZM38.8034 270.507L40.4423 263.608L41.4664 263.852L41.2103 264.93L41.3001 264.951C41.5314 264.617 41.8313 264.386 42.2001 264.259C42.5696 264.128 42.9789 264.116 43.428 264.223C43.8832 264.331 44.2374 264.524 44.4908 264.803C44.7478 265.079 44.9179 265.421 45.0011 265.83L45.073 265.847C45.3343 265.533 45.6665 265.313 46.0696 265.187C46.4735 265.059 46.9224 265.053 47.4165 265.17C48.0333 265.317 48.492 265.63 48.7925 266.109C49.0937 266.586 49.1479 267.23 48.9551 268.041L47.8583 272.658L46.7983 272.407L47.8951 267.789C48.0161 267.28 47.9632 266.883 47.7367 266.599C47.5102 266.314 47.2082 266.127 46.831 266.037C46.3459 265.922 45.9352 265.979 45.599 266.21C45.2635 266.437 45.0428 266.773 44.9368 267.219L43.8698 271.711L42.7919 271.455L43.9143 266.73C44.0075 266.338 43.9553 265.991 43.7577 265.691C43.5608 265.388 43.2617 265.189 42.8605 265.094C42.585 265.029 42.3101 265.041 42.0357 265.131C41.7643 265.221 41.5243 265.379 41.3156 265.605C41.1107 265.828 40.9681 266.109 40.8877 266.447L39.8634 270.759L38.8034 270.507ZM49.7963 273.119L51.4352 266.22L52.4952 266.472L50.8563 273.371L49.7963 273.119ZM52.2473 265.198C52.0407 265.149 51.8793 265.036 51.763 264.86C51.6497 264.685 51.6166 264.498 51.6635 264.3C51.7104 264.103 51.824 263.951 52.0042 263.845C52.1873 263.74 52.3822 263.712 52.5888 263.761C52.7954 263.81 52.9553 263.922 53.0686 264.098C53.1849 264.274 53.2196 264.461 53.1726 264.659C53.1257 264.856 53.0106 265.008 52.8275 265.113C52.6473 265.219 52.454 265.247 52.2473 265.198ZM54.8436 269.934L53.8578 274.084L52.7978 273.832L54.4367 266.933L55.4607 267.176L55.2046 268.254L55.2945 268.276C55.5394 267.964 55.8518 267.74 56.2317 267.606C56.6123 267.469 57.0631 267.462 57.5841 267.586C58.0512 267.697 58.4371 267.89 58.742 268.165C59.0475 268.436 59.2517 268.789 59.3545 269.221C59.4581 269.651 59.4402 270.159 59.3008 270.746L58.2594 275.129L57.1994 274.878L58.2237 270.566C58.3525 270.024 58.312 269.568 58.1024 269.199C57.8935 268.827 57.5435 268.582 57.0524 268.465C56.7141 268.385 56.3942 268.387 56.0929 268.47C55.7945 268.554 55.5356 268.719 55.316 268.964C55.0964 269.209 54.939 269.532 54.8436 269.934ZM62.3323 278.982C61.8203 278.86 61.3958 278.69 61.0588 278.471C60.7211 278.254 60.4547 278.011 60.2597 277.74C60.0669 277.473 59.9271 277.202 59.8403 276.928L60.8256 276.536C60.8915 276.685 60.9786 276.857 61.0869 277.054C61.1945 277.253 61.3614 277.443 61.5874 277.623C61.8158 277.807 62.1381 277.949 62.5543 278.048C63.1112 278.18 63.6029 278.154 64.0292 277.971C64.4555 277.788 64.737 277.408 64.8735 276.833L65.2064 275.432L65.1166 275.411C65.0089 275.518 64.8611 275.647 64.6733 275.799C64.4892 275.948 64.2468 276.063 63.9461 276.143C63.6492 276.222 63.2762 276.207 62.827 276.101C62.2701 275.968 61.8013 275.718 61.4208 275.349C61.0432 274.981 60.7854 274.515 60.6474 273.95C60.5124 273.387 60.5302 272.746 60.7009 272.027C60.8688 271.321 61.1393 270.735 61.5123 270.27C61.886 269.802 62.3286 269.477 62.84 269.295C63.3522 269.109 63.8987 269.086 64.4796 269.224C64.9288 269.331 65.2673 269.49 65.4952 269.702C65.7269 269.912 65.8907 270.128 65.9866 270.351C66.0862 270.57 66.1607 270.749 66.2101 270.888L66.3179 270.913L66.5782 269.817L67.6023 270.061L65.9165 277.157C65.7756 277.75 65.5264 278.2 65.1687 278.507C64.8133 278.818 64.3888 279.007 63.8954 279.073C63.4043 279.143 62.8833 279.113 62.3323 278.982ZM63.1969 275.182C63.6221 275.283 64.0046 275.272 64.3443 275.147C64.6839 275.022 64.9735 274.795 65.213 274.466C65.4525 274.137 65.6327 273.718 65.7536 273.209C65.8717 272.712 65.9011 272.255 65.8417 271.839C65.7823 271.423 65.6315 271.073 65.3893 270.788C65.1471 270.502 64.8104 270.308 64.3792 270.206C63.93 270.099 63.5287 270.124 63.1752 270.281C62.8247 270.438 62.5291 270.69 62.2883 271.038C62.0505 271.386 61.8762 271.794 61.7652 272.261C61.6514 272.74 61.6256 273.182 61.6878 273.586C61.7538 273.987 61.91 274.328 62.1567 274.608C62.407 274.886 62.7538 275.077 63.1969 275.182Z" fill="white"/>
<rect x="220.022" y="291.933" width="86" height="25" rx="4.5" transform="rotate(15.5178 220.022 291.933)" fill="#1DAB6E"/>
<rect x="220.022" y="291.933" width="86" height="25" rx="4.5" transform="rotate(15.5178 220.022 291.933)" stroke="black"/>
<path d="M238.042 315.099L235.231 314.318L237.76 305.208L240.696 306.024C241.58 306.269 242.285 306.661 242.813 307.201C243.341 307.737 243.678 308.391 243.825 309.163C243.972 309.932 243.915 310.789 243.653 311.732C243.39 312.68 242.994 313.451 242.465 314.042C241.938 314.63 241.3 315.018 240.551 315.206C239.804 315.392 238.967 315.356 238.042 315.099ZM236.606 313.646L238.243 314.1C238.996 314.31 239.66 314.338 240.236 314.185C240.812 314.031 241.296 313.72 241.688 313.251C242.081 312.782 242.38 312.176 242.586 311.435C242.79 310.7 242.845 310.033 242.753 309.436C242.661 308.835 242.415 308.326 242.017 307.909C241.619 307.489 241.065 307.18 240.353 306.982L238.592 306.493L236.606 313.646ZM244.092 316.779L245.989 309.946L247.003 310.228L246.716 311.26L246.787 311.279C247.006 310.976 247.307 310.764 247.692 310.644C248.077 310.524 248.474 310.521 248.883 310.635C248.96 310.656 249.056 310.684 249.171 310.719C249.286 310.755 249.372 310.783 249.43 310.806L249.133 311.873C249.1 311.855 249.022 311.819 248.9 311.765C248.781 311.71 248.652 311.663 248.512 311.624C248.18 311.532 247.864 311.519 247.565 311.586C247.269 311.651 247.011 311.784 246.793 311.985C246.578 312.184 246.427 312.438 246.342 312.746L245.141 317.07L244.092 316.779ZM251.28 318.928C250.664 318.757 250.163 318.46 249.779 318.037C249.398 317.615 249.15 317.104 249.036 316.503C248.924 315.904 248.967 315.251 249.163 314.545C249.36 313.834 249.662 313.248 250.067 312.789C250.475 312.331 250.952 312.019 251.496 311.854C252.043 311.689 252.625 311.693 253.242 311.864C253.858 312.035 254.357 312.332 254.739 312.754C255.123 313.177 255.37 313.69 255.481 314.292C255.594 314.895 255.552 315.553 255.354 316.265C255.159 316.97 254.857 317.551 254.449 318.006C254.045 318.463 253.569 318.773 253.022 318.937C252.478 319.102 251.897 319.099 251.28 318.928ZM251.542 317.985C252.011 318.115 252.43 318.102 252.799 317.946C253.168 317.789 253.48 317.536 253.734 317.185C253.987 316.834 254.178 316.43 254.305 315.973C254.431 315.516 254.477 315.071 254.441 314.636C254.405 314.201 254.27 313.82 254.035 313.493C253.8 313.166 253.448 312.937 252.98 312.807C252.511 312.677 252.092 312.692 251.722 312.851C251.352 313.01 251.04 313.267 250.785 313.621C250.53 313.975 250.339 314.38 250.212 314.837C250.086 315.293 250.04 315.738 250.077 316.17C250.114 316.601 250.25 316.979 250.486 317.303C250.721 317.628 251.074 317.855 251.542 317.985ZM258.209 316.271L257.068 320.382L256.018 320.09L257.915 313.258L258.93 313.539L258.633 314.607L258.722 314.632C258.979 314.329 259.299 314.118 259.684 313.998C260.069 313.875 260.52 313.885 261.036 314.028C261.499 314.157 261.877 314.364 262.171 314.65C262.466 314.933 262.657 315.293 262.744 315.729C262.831 316.162 262.794 316.669 262.633 317.251L261.427 321.592L260.378 321.301L261.563 317.03C261.712 316.493 261.689 316.037 261.493 315.66C261.299 315.28 260.958 315.022 260.472 314.887C260.137 314.794 259.817 314.784 259.513 314.856C259.211 314.929 258.946 315.084 258.718 315.32C258.489 315.557 258.32 315.874 258.209 316.271ZM266.171 323.062C265.512 322.88 264.985 322.577 264.588 322.153C264.195 321.728 263.942 321.217 263.83 320.621C263.722 320.022 263.765 319.373 263.959 318.673C264.153 317.973 264.452 317.392 264.855 316.929C265.262 316.464 265.737 316.145 266.28 315.973C266.827 315.799 267.408 315.798 268.025 315.969C268.381 316.068 268.716 316.225 269.03 316.44C269.344 316.655 269.606 316.935 269.817 317.281C270.028 317.624 270.158 318.037 270.206 318.52C270.254 319.003 270.19 319.563 270.012 320.2L269.889 320.645L264.622 319.183L264.874 318.275L269.073 319.441C269.18 319.056 269.199 318.69 269.129 318.345C269.061 318.001 268.911 317.702 268.678 317.449C268.448 317.196 268.143 317.017 267.763 316.912C267.345 316.796 266.955 316.799 266.592 316.922C266.232 317.043 265.925 317.245 265.671 317.529C265.416 317.813 265.237 318.143 265.132 318.52L264.964 319.124C264.821 319.64 264.789 320.103 264.867 320.511C264.949 320.917 265.124 321.258 265.393 321.534C265.662 321.806 266.008 322.002 266.433 322.119C266.708 322.196 266.968 322.227 267.212 322.211C267.46 322.194 267.687 322.129 267.893 322.017C268.101 321.902 268.282 321.739 268.437 321.526L269.372 322.092C269.17 322.407 268.907 322.659 268.582 322.85C268.258 323.038 267.891 323.154 267.48 323.196C267.07 323.235 266.633 323.191 266.171 323.062ZM276.948 320.19L275.931 320.195C275.915 320.022 275.87 319.845 275.796 319.664C275.725 319.482 275.605 319.315 275.437 319.162C275.268 319.01 275.031 318.892 274.726 318.807C274.308 318.691 273.932 318.69 273.6 318.806C273.272 318.919 273.067 319.122 272.985 319.416C272.913 319.677 272.95 319.909 273.098 320.113C273.246 320.317 273.508 320.526 273.883 320.738L274.828 321.269C275.398 321.587 275.79 321.94 276.005 322.329C276.22 322.714 276.262 323.146 276.129 323.623C276.02 324.015 275.81 324.334 275.499 324.579C275.191 324.826 274.812 324.983 274.363 325.049C273.913 325.116 273.423 325.076 272.892 324.929C272.195 324.735 271.66 324.424 271.288 323.994C270.915 323.565 270.748 323.043 270.788 322.428L271.854 322.456C271.847 322.85 271.949 323.175 272.162 323.432C272.378 323.69 272.701 323.879 273.131 323.998C273.62 324.134 274.038 324.138 274.383 324.011C274.732 323.881 274.947 323.669 275.029 323.375C275.095 323.138 275.067 322.916 274.945 322.71C274.824 322.501 274.603 322.309 274.281 322.133L273.217 321.55C272.632 321.228 272.236 320.871 272.029 320.478C271.826 320.083 271.79 319.649 271.921 319.178C272.028 318.792 272.231 318.481 272.529 318.245C272.831 318.009 273.194 317.859 273.617 317.795C274.044 317.731 274.497 317.766 274.978 317.899C275.654 318.087 276.144 318.383 276.447 318.786C276.753 319.191 276.92 319.659 276.948 320.19Z" fill="white"/>
<defs>
<filter id="filter0_f_12787_47743" x="76.002" y="342.49" width="159" height="18" filterUnits="userSpaceOnUse" color-interpolation-filters="sRGB">
<feFlood flood-opacity="0" result="BackgroundImageFix"/>
<feBlend mode="normal" in="SourceGraphic" in2="BackgroundImageFix" result="shape"/>
<feGaussianBlur stdDeviation="2" result="effect1_foregroundBlur_12787_47743"/>
</filter>
</defs>
</svg>
